<svg width="180" height="180" version="1.1" viewBox="0 0 180 180" xmlns="http://www.w3.org/2000/svg" fill="currentColor" stroke="none">
 <path d="m10.591 27.429v-1.1013h8.7547v1.1013zm9.3333-2.6507v-0.74667l7-11.648h-4.0507q-0.82134 0-1.1387 0.46667-0.31733 0.448-0.392 1.064l-0.09333 0.80267h-0.97067l0.09333-3.2667h8.848v0.76534l-7.0187 11.629h4.704q0.84 0 1.1573-0.448 0.31733-0.46667 0.392-1.0827l0.09333-0.80267h0.97067l-0.09333 3.2667zm14.616 0.20533q-1.0453 0-1.6427-0.24267-0.59733-0.24267-0.84-0.59733-0.224-0.37333-0.224-0.76534 0-0.35467 0.168-0.57867 0.18667-0.24267 0.392-0.31733 0.26133 0.57867 0.76533 1.0267 0.52267 0.448 1.4 0.448 1.5493 0 2.2773-1.3813 0.74667-1.3813 0.84-4.2-0.41067 0.48534-1.0827 0.87734-0.672 0.392-1.6613 0.392-1.624 0-2.6507-0.952-1.0267-0.952-1.0267-2.8373 0-1.344 0.46667-2.3707 0.48534-1.0453 1.3813-1.624 0.896-0.59734 2.1467-0.59734 1.2693 0 2.24 0.65334 0.98934 0.65333 1.5493 2.0347t0.56 3.584q0 1.4747-0.28 2.8187-0.28 1.3253-0.896 2.3707-0.59734 1.0453-1.568 1.6613-0.952 0.59733-2.3147 0.59733zm0.80267-6.44q0.91467 0 1.512-0.448 0.59733-0.46667 0.84-1.064-0.03733-2.5013-0.70933-3.6213-0.65334-1.12-1.736-1.12-0.97067 0-1.5307 0.87734-0.54133 0.85867-0.54133 2.5013 0 1.5307 0.54133 2.2027 0.54134 0.672 1.624 0.672zm10.229 6.4213q-1.848 0-2.8373-1.232-0.97067-1.2507-0.97067-3.9387 0-2.7067 0.97067-3.9573 0.98934-1.2507 2.8373-1.2507 1.0827 0 1.7547 0.46667 0.69067 0.448 1.1013 1.176h0.112q-0.056-0.46667-0.09333-1.0267-0.01867-0.57867-0.01867-1.0267v-1.5307q0-0.82134-0.46667-1.0453-0.448-0.224-1.064-0.224h-0.14934v-0.784h3.4347v12.133q0 0.82134 0.448 1.0453 0.46667 0.224 1.0827 0.224h0.14933v0.784h-3.1547l-0.20533-1.68h-0.07467q-0.41067 0.85867-1.0827 1.3627t-1.7733 0.504zm0.31733-1.1947q1.456 0 1.9973-0.97067 0.54133-0.98934 0.54133-3.0053 0-1.9413-0.54133-2.968-0.54133-1.0453-2.016-1.0453-1.232 0-1.7733 1.0453-0.52267 1.0267-0.52267 2.9867 0 1.9787 0.52267 2.968 0.54133 0.98934 1.792 0.98934zm11.667 1.1947q-2.0347 0-3.192-1.344-1.1387-1.344-1.1387-3.7707 0-2.6133 1.0827-3.9387t3.0613-1.3253q1.8107 0 2.8373 1.12 1.0453 1.12 1.0453 3.3413v0.85867h-6.216q0.03733 2.0347 0.728 2.968 0.70933 0.91467 2.0533 0.91467 0.97067 0 1.6427-0.392 0.69067-0.41067 1.0267-0.91467 0.13067 0.056 0.24267 0.224 0.112 0.168 0.112 0.41067 0 0.37333-0.35467 0.80267-0.35467 0.42933-1.0827 0.74667-0.728 0.29867-1.848 0.29867zm1.8107-6.0667q0-1.4933-0.46667-2.3893-0.448-0.91467-1.568-0.91467-1.0267 0-1.6053 0.85867-0.56 0.84-0.65333 2.4453zm3.3413 5.88v-0.784h0.24267q0.63467 0 1.0267-0.224 0.41067-0.24267 0.41067-1.12v-5.824q0-0.82134-0.41067-1.0453t-1.0267-0.224h-0.056v-0.784h2.9307l0.24267 1.512h0.09333q0.56-1.0453 1.2507-1.3627 0.70933-0.336 1.568-0.336 0.896 0 1.624 0.392 0.728 0.37333 1.0827 1.3067h0.14933q0.56-1.0453 1.3067-1.3627 0.76534-0.336 1.624-0.336 1.4373 0 2.24 0.87734 0.80267 0.85867 0.80267 2.7813v4.4053q0 0.87734 0.392 1.12 0.41067 0.224 1.0453 0.224h0.056v0.784h-3.248v-6.44q0-1.2133-0.448-1.8853-0.42933-0.672-1.512-0.672-0.76534 0-1.232 0.392-0.448 0.37333-0.65333 1.008-0.18667 0.63467-0.18667 1.3813v4.088q0 0.87734 0.392 1.12 0.41067 0.224 1.0453 0.224h0.056v0.784h-3.248v-6.44q0-1.2133-0.448-1.8853-0.42933-0.672-1.512-0.672-0.80267 0-1.288 0.42933-0.46667 0.41067-0.672 1.1013t-0.20533 1.4933v3.9387q0 0.82134 0.448 1.0453 0.46667 0.20533 1.0827 0.20533h0.056v0.784zm20.944 0.18667q-1.2507 0-2.072-0.728-0.82134-0.728-0.82134-2.2587 0-1.4933 1.0453-2.2027 1.064-0.70934 3.2107-0.784l1.5493-0.056v-1.12q0-0.672-0.112-1.176-0.112-0.52267-0.48534-0.82134-0.37333-0.29867-1.1387-0.29867-0.70934 0-1.0827 0.26133t-0.504 0.728q-0.112 0.448-0.112 1.0453-0.784 0-1.1947-0.26133-0.392-0.28-0.392-0.91467 0-0.65333 0.448-1.0453 0.46667-0.392 1.232-0.56 0.76534-0.18667 1.68-0.18667 1.7173 0 2.5573 0.728 0.85867 0.728 0.85867 2.5013v4.8347q0 0.784 0.26133 1.064 0.26133 0.28 0.896 0.28h0.056v0.784h-2.52l-0.29867-1.6053h-0.14933q-0.392 0.52267-0.76534 0.93334-0.37333 0.392-0.87734 0.63467-0.48533 0.224-1.2693 0.224zm0.42933-1.1573q1.1387 0 1.8107-0.69067 0.672-0.70933 0.672-1.904v-1.512l-1.1947 0.056q-1.5867 0.07467-2.2027 0.65334-0.59733 0.56-0.59733 1.6613 0 1.736 1.512 1.736zm6.776 0.97067v-0.784h0.14933q0.63467 0 1.0827-0.224 0.448-0.24267 0.448-1.12v-5.824q0-0.82134-0.448-1.0453-0.42933-0.224-1.0453-0.224h-0.09333v-0.784h3.024l0.24267 1.512h0.09333q0.57867-1.0453 1.288-1.3627 0.728-0.336 1.624-0.336 1.4747 0 2.296 0.87734 0.84 0.85867 0.84 2.7813v4.4053q0 0.87734 0.37333 1.12 0.392 0.224 1.0267 0.224h0.0933v0.784h-3.248v-6.44q0-1.2133-0.46667-1.8853-0.448-0.672-1.5867-0.672-0.84 0-1.344 0.42933-0.48533 0.41067-0.70933 1.1013-0.20533 0.69067-0.20533 1.4933v3.9387q0 0.82134 0.42933 1.0453 0.448 0.20533 1.064 0.20533h0.09333v0.784zm15.829 4.48q-1.9413 0-2.912-0.728-0.97066-0.70933-0.97066-1.9973 0-1.1013 0.70933-1.6613 0.70934-0.56 1.624-0.728-0.37333-0.168-0.70933-0.54134-0.31733-0.392-0.31733-0.98934 0-0.56 0.28-0.97067 0.29866-0.41067 0.93333-0.784-0.80267-0.336-1.2507-1.1013-0.42933-0.784-0.42933-1.7173 0-1.6053 0.87733-2.52 0.87734-0.93334 2.632-0.93334 0.672 0 1.2693 0.18667 0.59734 0.18667 0.85867 0.42933 0.26134-0.29867 0.728-0.65333 0.46667-0.35467 1.0827-0.35467 0.56 0 0.82134 0.29867 0.28 0.28 0.28 0.672t-0.24267 0.69067q-0.224 0.28-0.74667 0.28 0-0.20533-0.13067-0.41067-0.112-0.224-0.48533-0.224-0.42933 0-0.80267 0.224 0.31734 0.392 0.52267 0.93334 0.20533 0.52267 0.20533 1.3253 0 1.3813-0.84 2.296-0.82133 0.91467-2.52 0.91467-0.224 0-0.52267-0.01867-0.28-0.03733-0.46667-0.07467-0.35466 0.18667-0.616 0.46667-0.26133 0.28-0.26133 0.70934 0 0.336 0.20533 0.52267 0.224 0.18667 0.952 0.18667h2.1093q1.6613 0 2.3707 0.784 0.70934 0.784 0.70934 1.9973 0 1.6053-1.2133 2.5387-1.1947 0.952-3.7333 0.952zm0.41067-8.96q0.91467 0 1.288-0.56t0.37333-1.7733q0-1.2693-0.392-1.8667-0.37333-0.59734-1.288-0.59734-0.896 0-1.288 0.616-0.392 0.616-0.392 1.8667 0 1.1947 0.392 1.7547 0.41067 0.56 1.3067 0.56zm-0.37334 8.0453q1.344 0 2.072-0.29867 0.728-0.28 1.008-0.80267 0.29867-0.504 0.29867-1.1573 0-0.85867-0.48534-1.1573-0.48533-0.28-1.4187-0.28h-1.8293q-0.52267 0-0.98934 0.13067-0.46667 0.14933-0.76533 0.52267-0.29867 0.37333-0.29867 1.12 0 0.54133 0.20533 0.97067 0.20534 0.448 0.728 0.69067 0.52267 0.26133 1.4747 0.26133zm5.936-3.5653v-0.784h0.24266q0.63467 0 1.0827-0.224 0.448-0.24267 0.448-1.12v-10.005q0-0.82134-0.46666-1.0453-0.44801-0.224-1.064-0.224h-0.24266v-0.784h3.528v12.059q0 0.87734 0.448 1.12 0.448 0.224 1.0827 0.224h0.24267v0.784zm10.901 0.18667q-2.0347 0-3.192-1.344-1.1387-1.344-1.1387-3.7707 0-2.6133 1.0827-3.9387t3.0613-1.3253q1.8107 0 2.8373 1.12 1.0453 1.12 1.0453 3.3413v0.85867h-6.216q0.0373 2.0347 0.72801 2.968 0.70933 0.91467 2.0533 0.91467 0.97067 0 1.6427-0.392 0.69067-0.41067 1.0267-0.91467 0.13067 0.056 0.24267 0.224 0.112 0.168 0.112 0.41067 0 0.37333-0.35467 0.80267t-1.0827 0.74667q-0.728 0.29867-1.848 0.29867zm1.8107-6.0667q0-1.4933-0.46667-2.3893-0.448-0.91467-1.568-0.91467-1.0267 0-1.6053 0.85867-0.56 0.84-0.65333 2.4453zm3.4347 5.88v-0.784h0.056q0.63467 0 1.0827-0.224 0.448-0.24267 0.448-1.12v-5.824q0-0.82134-0.46666-1.0453-0.44801-0.224-1.064-0.224h-0.056v-0.784h2.8747l0.35466 1.848h0.0933q0.24266-0.56 0.52266-1.0267 0.28-0.46667 0.74667-0.728 0.46667-0.28 1.288-0.28 1.0267 0 1.512 0.35467 0.504 0.35467 0.504 1.008 0 0.57867-0.41067 0.952-0.392 0.37333-1.3253 0.37333 0-0.76534-0.224-1.1013-0.224-0.35467-0.76533-0.35467-0.52267 0-0.87734 0.41067-0.35466 0.41067-0.56 1.0453-0.20533 0.63467-0.29866 1.3253-0.0933 0.672-0.0933 1.2133v2.9307q0 0.82134 0.448 1.0453 0.46667 0.20533 1.0827 0.20533h0.52267v0.784zm8.8854 0v-0.784h0.24266q0.63467 0 1.0827-0.224 0.448-0.24267 0.448-1.12v-9.1467q0-0.82134-0.46666-1.0453-0.448-0.224-1.064-0.224h-0.24266v-0.784h5.2453q2.352 0 3.472 1.0453 1.12 1.0267 1.12 2.856 0 1.1013-0.48534 2.072-0.46666 0.97067-1.568 1.568-1.1013 0.59734-2.9493 0.59734h-1.176v3.1547q0 0.82134 0.448 1.0453 0.46667 0.20533 1.0827 0.20533h0.616v0.784zm4.648-6.0667q1.6987 0 2.4267-0.74667 0.74666-0.76534 0.74666-2.5387 0-1.568-0.65333-2.3147-0.65333-0.76534-2.24-0.76534h-1.2693v6.3653zm6.6267 6.0667v-0.784h0.24267q0.616 0 1.064-0.20533 0.46667-0.224 0.46667-1.0453v-9.24q0-0.82134-0.46667-1.0453-0.448-0.224-1.064-0.224h-0.24267v-0.784h5.432v0.784h-0.24267q-0.63467 0-1.0827 0.24267-0.448 0.224-0.448 1.1013v5.264l3.864-4.424q0.59733-0.69067 0.80267-1.1013 0.224-0.42933 0.224-0.69067 0-0.24267-0.224-0.31733-0.224-0.09333-0.69067-0.09333v-0.76534h4.1253v0.76534q-0.63467 0-1.2133 0.46667-0.56 0.46667-1.288 1.288l-2.7067 3.0427 3.9387 5.488q0.54134 0.728 1.0267 1.12 0.504 0.37333 1.0267 0.37333h0.0373v0.784h-0.20533q-0.93333 0-1.5493-0.07467-0.59733-0.07467-1.008-0.26133-0.392-0.18667-0.70933-0.504-0.29867-0.336-0.65334-0.84l-3.2107-4.6107-1.5867 1.568v2.5947q0 0.87734 0.448 1.12 0.448 0.224 1.0827 0.224h0.24267v0.784zm17.267 0.18667q-1.232 0-2.2027-0.52267-0.952-0.52267-1.512-1.6427-0.54134-1.1387-0.54134-2.968 0-1.9973 0.54134-3.136 0.56-1.1573 1.4933-1.624 0.952-0.48533 2.128-0.48533 0.784 0 1.5307 0.20533 0.74666 0.20533 1.232 0.63467 0.48533 0.41067 0.48533 1.064 0 0.63467-0.42933 0.91467-0.41067 0.26133-1.232 0.26133 0-0.87734-0.33601-1.512-0.31733-0.63467-1.2507-0.63467-0.70934 0-1.2507 0.37333-0.52267 0.37333-0.82134 1.3067-0.28 0.93334-0.28 2.6133 0 1.9787 0.65334 2.968 0.672 0.97067 2.1653 0.97067 0.87734 0 1.512-0.35467 0.65333-0.37333 0.97066-0.952 0.31734 0.26133 0.31734 0.728 0 0.42933-0.35467 0.84-0.35467 0.41067-1.064 0.69067-0.69067 0.26133-1.7547 0.26133z" stroke="#000" stroke-linecap="square" stroke-width=".159" style="paint-order:markers stroke fill" aria-label="_Z9demanglerPKc"/>
 <path d="m27.627 136.45q-2.64 0-4.0533-1.76-1.3867-1.7867-1.3867-5.6267 0-3.8667 1.3867-5.6533 1.4133-1.7867 4.0533-1.7867 1.5467 0 2.5067 0.66666 0.98667 0.64001 1.5733 1.68h0.16q-0.08-0.66667-0.13333-1.4667-0.02667-0.82667-0.02667-1.4667v-2.1867q0-1.1733-0.66667-1.4933-0.64-0.32-1.52-0.32h-0.21333v-1.12h4.9067v17.333q0 1.1733 0.64 1.4933 0.66667 0.32 1.5467 0.32h0.21333v1.12h-4.5067l-0.29333-2.4h-0.10667q-0.58667 1.2267-1.5467 1.9467-0.96 0.72-2.5333 0.72zm0.45333-1.7067q2.08 0 2.8533-1.3867 0.77333-1.4133 0.77333-4.2933 0-2.7733-0.77333-4.24-0.77334-1.4933-2.88-1.4933-1.76 0-2.5333 1.4933-0.74667 1.4667-0.74667 4.2667 0 2.8267 0.74667 4.24 0.77333 1.4133 2.56 1.4133zm16.667 1.7067q-2.9067 0-4.56-1.92-1.6267-1.92-1.6267-5.3867 0-3.7333 1.5467-5.6267 1.5467-1.8933 4.3733-1.8933 2.5867 0 4.0533 1.6 1.4933 1.6 1.4933 4.7733v1.2267h-8.88q0.05333 2.9067 1.04 4.24 1.0133 1.3067 2.9333 1.3067 1.3867 0 2.3467-0.56 0.98667-0.58667 1.4667-1.3067 0.18667 0.08 0.34667 0.32t0.16 0.58667q0 0.53333-0.50667 1.1467-0.50667 0.61333-1.5467 1.0667-1.04 0.42667-2.64 0.42667zm2.5867-8.6667q0-2.1333-0.66667-3.4133-0.64-1.3067-2.24-1.3067-1.4667 0-2.2933 1.2267-0.8 1.2-0.93333 3.4933zm4.7733 8.4v-1.12h0.34667q0.90667 0 1.4667-0.32 0.58667-0.34666 0.58667-1.6v-8.32q0-1.1733-0.58667-1.4933-0.58667-0.32-1.4667-0.32h-0.08v-1.12h4.1867l0.34667 2.16h0.13333q0.8-1.4933 1.7867-1.9467 1.0133-0.48 2.24-0.48 1.28 0 2.32 0.56 1.04 0.53333 1.5467 1.8667h0.21333q0.8-1.4933 1.8667-1.9467 1.0933-0.48 2.32-0.48 2.0533 0 3.2 1.2533 1.1467 1.2267 1.1467 3.9733v6.2933q0 1.2533 0.56 1.6 0.58667 0.32 1.4933 0.32h0.08v1.12h-4.64v-9.2q0-1.7333-0.64-2.6933-0.61333-0.96-2.16-0.96-1.0933 0-1.76 0.56-0.64 0.53333-0.93333 1.44-0.26667 0.90667-0.26667 1.9733v5.84q0 1.2533 0.56 1.6 0.58667 0.32 1.4933 0.32h0.08v1.12h-4.64v-9.2q0-1.7333-0.64-2.6933-0.61333-0.96-2.16-0.96-1.1467 0-1.84 0.61333-0.66667 0.58667-0.96 1.5733-0.29333 0.98667-0.29333 2.1333v5.6267q0 1.1733 0.64 1.4933 0.66667 0.29333 1.5467 0.29333h0.08v1.12zm29.92 0.26666q-1.7867 0-2.96-1.04t-1.1733-3.2267q0-2.1333 1.4933-3.1467 1.52-1.0133 4.5867-1.12l2.2133-0.08v-1.6q0-0.96001-0.16-1.68-0.16-0.74666-0.69333-1.1733t-1.6267-0.42667q-1.0133 0-1.5467 0.37334-0.53333 0.37333-0.72 1.04-0.16 0.64-0.16 1.4933-1.12 0-1.7067-0.37333-0.56-0.4-0.56-1.3067 0-0.93333 0.64-1.4933 0.66667-0.56 1.76-0.8 1.0933-0.26666 2.4-0.26666 2.4533 0 3.6533 1.04 1.2267 1.04 1.2267 3.5733v6.9067q0 1.12 0.37333 1.52t1.28 0.4h0.08v1.12h-3.6l-0.42667-2.2933h-0.21333q-0.56 0.74667-1.0933 1.3333-0.53333 0.56-1.2533 0.90667-0.69333 0.32-1.8133 0.32zm0.61333-1.6533q1.6267 0 2.5867-0.98667 0.96-1.0133 0.96-2.72v-2.16l-1.7067 0.08q-2.2667 0.10667-3.1467 0.93334-0.85334 0.8-0.85334 2.3733 0 2.48 2.16 2.48zm9.68 1.3867v-1.12h0.21333q0.90667 0 1.5467-0.32 0.64-0.34666 0.64-1.6v-8.32q0-1.1733-0.64-1.4933-0.61333-0.32-1.4933-0.32h-0.13333v-1.12h4.32l0.34667 2.16h0.13333q0.82667-1.4933 1.84-1.9467 1.04-0.48 2.32-0.48 2.1067 0 3.28 1.2533 1.2 1.2267 1.2 3.9733v6.2933q0 1.2533 0.53333 1.6 0.56 0.32 1.4667 0.32h0.13333v1.12h-4.64v-9.2q0-1.7333-0.66667-2.6933-0.64-0.96-2.2667-0.96-1.2 0-1.92 0.61333-0.69333 0.58667-1.0133 1.5733-0.29333 0.98667-0.29333 2.1333v5.6267q0 1.1733 0.61333 1.4933 0.64 0.29333 1.52 0.29333h0.13333v1.12zm22.613 6.4q-2.7733 0-4.16-1.04-1.3867-1.0133-1.3867-2.8533 0-1.5733 1.0133-2.3733 1.0133-0.8 2.32-1.04-0.53333-0.24-1.0133-0.77334-0.45333-0.56-0.45333-1.4133 0-0.8 0.4-1.3867 0.42666-0.58667 1.3333-1.12-1.1467-0.48-1.7867-1.5733-0.61333-1.12-0.61333-2.4533 0-2.2933 1.2533-3.6 1.2533-1.3333 3.76-1.3333 0.96 0 1.8133 0.26666 0.85334 0.26667 1.2267 0.61334 0.37334-0.42667 1.04-0.93334 0.66667-0.50666 1.5467-0.50666 0.8 0 1.1733 0.42666 0.4 0.4 0.4 0.96 0 0.56001-0.34667 0.98667-0.32 0.4-1.0667 0.4 0-0.29333-0.18666-0.58666-0.16-0.32-0.69334-0.32-0.61333 0-1.1467 0.32 0.45334 0.56 0.74667 1.3333 0.29333 0.74667 0.29333 1.8933 0 1.9733-1.2 3.28-1.1733 1.3067-3.6 1.3067-0.32 0-0.74667-0.0267-0.4-0.0533-0.66667-0.10666-0.50666 0.26666-0.88 0.66666-0.37333 0.4-0.37333 1.0133 0 0.48 0.29333 0.74666 0.32 0.26667 1.36 0.26667h3.0133q2.3733 0 3.3867 1.12 1.0133 1.12 1.0133 2.8533 0 2.2933-1.7333 3.6267-1.7067 1.36-5.3333 1.36zm0.58667-12.8q1.3067 0 1.84-0.8t0.53333-2.5333q0-1.8133-0.56-2.6667-0.53333-0.85333-1.84-0.85333-1.28 0-1.84 0.88t-0.56 2.6667q0 1.7067 0.56 2.5067 0.58667 0.8 1.8667 0.8zm-0.53334 11.493q1.92 0 2.96-0.42666 1.04-0.4 1.44-1.1467 0.42667-0.72 0.42667-1.6533 0-1.2267-0.69334-1.6533-0.69333-0.4-2.0267-0.4h-2.6133q-0.74667 0-1.4133 0.18667-0.66667 0.21333-1.0933 0.74666-0.42667 0.53334-0.42667 1.6 0 0.77334 0.29333 1.3867 0.29334 0.64 1.04 0.98667 0.74666 0.37333 2.1067 0.37333zm8.48-5.0933v-1.12h0.34666q0.90667 0 1.5467-0.32 0.64-0.34666 0.64-1.6v-14.293q0-1.1733-0.66666-1.4933-0.64-0.32-1.52-0.32h-0.34666v-1.12h5.04v17.227q0 1.2533 0.64 1.6 0.64001 0.32 1.5467 0.32h0.34667v1.12zm15.573 0.26666q-2.9067 0-4.56-1.92-1.6267-1.92-1.6267-5.3867 0-3.7333 1.5467-5.6267 1.5467-1.8933 4.3733-1.8933 2.5867 0 4.0533 1.6 1.4933 1.6 1.4933 4.7733v1.2267h-8.88q0.0533 2.9067 1.04 4.24 1.0133 1.3067 2.9333 1.3067 1.3867 0 2.3467-0.56 0.98667-0.58667 1.4667-1.3067 0.18667 0.08 0.34667 0.32t0.16 0.58667q0 0.53333-0.50667 1.1467-0.50667 0.61333-1.5467 1.0667-1.04 0.42667-2.64 0.42667zm2.5867-8.6667q0-2.1333-0.66667-3.4133-0.64-1.3067-2.24-1.3067-1.4667 0-2.2933 1.2267-0.8 1.2-0.93333 3.4933zm4.9067 8.4v-1.12h0.08q0.90667 0 1.5467-0.32 0.64-0.34666 0.64-1.6v-8.32q0-1.1733-0.66667-1.4933-0.64-0.32-1.52-0.32h-0.08v-1.12h4.1067l0.50667 2.64h0.13333q0.34667-0.8 0.74667-1.4667t1.0667-1.04q0.66667-0.4 1.84-0.4 1.4667 0 2.16 0.50666 0.72 0.50667 0.72 1.44 0 0.82666-0.58666 1.36-0.56 0.53333-1.8933 0.53333 0-1.0933-0.32-1.5733-0.32-0.50667-1.0933-0.50667-0.74667 0-1.2533 0.58667-0.50667 0.58666-0.8 1.4933t-0.42667 1.8933q-0.13333 0.96-0.13333 1.7333v4.1867q0 1.1733 0.64 1.4933 0.66667 0.29333 1.5467 0.29333h0.74667v1.12z" stroke="#000" stroke-linecap="square" stroke-width=".159" style="paint-order:markers stroke fill" aria-label="demangler"/>
 <path d="m64.713 74.694 25.287 25.287 25.287-25.287m-25.287 21.775v-51.276" fill="none" stroke="currentColor" stroke-linecap="round" stroke-linejoin="round" stroke-width="8.429"/>
 <path d="m16.24 169.41q-2.4533-0.98667-3.9733-2.5333-1.4933-1.52-2.1867-3.8133-0.69333-2.32-0.69333-5.52 0-3.2 0.69333-5.4667 0.69334-2.2933 2.1867-3.84 1.52-1.5467 3.9733-2.5067v1.2q-1.84 1.0933-2.72 2.7733-0.85334 1.68-1.12 3.7067-0.24 2-0.24 4.1333 0 2.1067 0.24 4.1333 0.26667 2.0267 1.12 3.7067 0.88 1.68 2.72 2.8zm8.4-3.1467q-1.76 0-3.1467-0.74667-1.36-0.74667-2.16-2.3467-0.77333-1.6267-0.77333-4.24 0-2.8533 0.77333-4.48 0.8-1.6533 2.1333-2.32 1.36-0.69334 3.04-0.69334 1.12 0 2.1867 0.29334 1.0667 0.29333 1.76 0.90667 0.69333 0.58666 0.69333 1.52 0 0.90667-0.61333 1.3067-0.58667 0.37333-1.76 0.37333 0-1.2533-0.48-2.16-0.45333-0.90667-1.7867-0.90667-1.0133 0-1.7867 0.53333-0.74667 0.53334-1.1733 1.8667-0.4 1.3333-0.4 3.7333 0 2.8267 0.93333 4.24 0.96 1.3867 3.0933 1.3867 1.2533 0 2.16-0.50666 0.93334-0.53334 1.3867-1.36 0.45333 0.37333 0.45333 1.04 0 0.61333-0.50667 1.2-0.50667 0.58667-1.52 0.98667-0.98667 0.37333-2.5067 0.37333zm13.227 0q-2.88 0-4.5333-1.84-1.6533-1.84-1.6533-5.6 0-3.7333 1.5733-5.5467 1.6-1.84 4.6933-1.84 2.88 0 4.5333 1.84 1.6533 1.8133 1.6533 5.5467 0 3.76-1.6 5.6-1.5733 1.84-4.6667 1.84zm0.05333-1.3867q2 0 2.8-1.52 0.82667-1.5467 0.82667-4.5333t-0.82667-4.48q-0.82667-1.4933-2.8267-1.4933-2 0-2.8267 1.4933-0.8 1.4933-0.8 4.48t0.82667 4.5333q0.82667 1.52 2.8267 1.52zm8.4267 1.12v-1.12h0.21333q0.90667 0 1.5467-0.32 0.64-0.34667 0.64-1.6v-8.32q0-1.1733-0.64-1.4933-0.61333-0.32-1.4933-0.32h-0.13333v-1.12h4.32l0.34667 2.16h0.13333q0.82667-1.4933 1.84-1.9467 1.04-0.48001 2.32-0.48001 2.1067 0 3.28 1.2533 1.2 1.2267 1.2 3.9733v6.2933q0 1.2533 0.53333 1.6 0.56 0.32 1.4667 0.32h0.13333v1.12h-4.64v-9.2q0-1.7333-0.66667-2.6933-0.64-0.96-2.2667-0.96-1.2 0-1.92 0.61334-0.69333 0.58666-1.0133 1.5733-0.29333 0.98667-0.29333 2.1333v5.6267q0 1.1733 0.61333 1.4933 0.64 0.29333 1.52 0.29333h0.13333v1.12zm22.053 0.26667q-2 0-3.2-0.72-1.2-0.72-1.2-2.1067 0-0.72 0.29333-1.12t0.66667-0.56q0.4-0.16 0.72-0.16 0 1.3867 0.61333 2.4 0.64 0.98667 2.2667 0.98667 1.4133 0 2.16-0.66667 0.77333-0.69333 0.77333-1.76 0-0.66667-0.29333-1.0933-0.26667-0.42666-0.98667-0.82666-0.69333-0.42667-2-0.98667-1.36-0.61334-2.2667-1.1733-0.88-0.58666-1.3333-1.3333-0.42667-0.77334-0.42667-1.92 0-1.8133 1.36-2.7733 1.3867-0.98667 3.6533-0.98667 1.92 0 2.9067 0.72t0.98667 1.7333q0 0.72-0.50667 1.1733-0.48 0.42667-1.4133 0.42667 0-1.3333-0.56-2.08-0.56-0.74667-1.7333-0.74667-1.36 0-1.9467 0.61333-0.58667 0.58667-0.58667 1.52 0 1.0133 0.74667 1.5733 0.77334 0.53333 2.56 1.2533 1.4133 0.58666 2.2933 1.1733t1.28 1.36q0.42667 0.77334 0.42667 1.8933 0 2.08-1.44 3.1467-1.44 1.04-3.8133 1.04zm12.827 0q-2.0267 0-2.96-0.90667-0.90667-0.93333-0.90667-3.2267v-8.9067h-2.0267v-1.0667q0.48 0 1.0667-0.18667 0.58667-0.21334 1.0133-0.66667 0.45333-0.48 0.74667-1.1733 0.29333-0.69334 0.48-1.7067h1.2267v3.28h3.4933v1.52h-3.4933v8.9867q0 1.36 0.56 2t1.4667 0.64q0.48 0 0.88-0.0533 0.4-0.0533 0.82667-0.13333v1.1733q-0.34667 0.16-1.04 0.29334-0.69333 0.13333-1.3333 0.13333zm17.467 0q-1.76 0-3.1467-0.74667-1.36-0.74667-2.16-2.3467-0.77333-1.6267-0.77333-4.24 0-2.8533 0.77333-4.48 0.8-1.6533 2.1333-2.32 1.36-0.69334 3.04-0.69334 1.12 0 2.1867 0.29334 1.0667 0.29333 1.76 0.90667 0.69333 0.58666 0.69333 1.52 0 0.90667-0.61333 1.3067-0.58667 0.37333-1.76 0.37333 0-1.2533-0.48-2.16-0.45334-0.90667-1.7867-0.90667-1.0133 0-1.7867 0.53333-0.74667 0.53334-1.1733 1.8667-0.4 1.3333-0.4 3.7333 0 2.8267 0.93333 4.24 0.96 1.3867 3.0933 1.3867 1.2533 0 2.16-0.50666 0.93333-0.53334 1.3867-1.36 0.45333 0.37333 0.45333 1.04 0 0.61333-0.50667 1.2-0.50666 0.58667-1.52 0.98667-0.98667 0.37333-2.5067 0.37333zm6.0534-0.26667v-1.12h0.21333q0.90667 0 1.5467-0.32 0.64-0.34667 0.64-1.6v-14.293q0-1.1733-0.66667-1.4933-0.64-0.32-1.52-0.32h-0.21333v-1.12h4.9067v5.8667q0 0.48001-0.0267 1.0133-0.0267 0.50667-0.0533 0.88-0.0267 0.37333-0.0267 0.37333h0.13333q1.2267-2.4267 3.92-2.4267 2.2933 0 3.4933 1.2533 1.2267 1.2267 1.2267 3.9733v6.2933q0 1.2533 0.56 1.6 0.58667 0.32 1.4933 0.32h0.08v1.12h-4.64v-9.2q0-1.7333-0.66667-2.6933-0.64-0.96-2.2667-0.96-1.6533 0-2.4533 1.1733-0.77334 1.1733-0.77334 3.1467v5.6267q0 1.1733 0.64 1.4933 0.66667 0.29333 1.5467 0.29333h0.08v1.12zm21.92 0.26667q-1.7867 0-2.96-1.04-1.1733-1.04-1.1733-3.2267 0-2.1333 1.4933-3.1467 1.52-1.0133 4.5867-1.12l2.2133-0.08v-1.6q0-0.96-0.16-1.68-0.16-0.74667-0.69333-1.1733-0.53333-0.42667-1.6267-0.42667-1.0133 0-1.5467 0.37333-0.53333 0.37334-0.72 1.04-0.16 0.64001-0.16 1.4933-1.12 0-1.7067-0.37333-0.56-0.4-0.56-1.3067 0-0.93334 0.64-1.4933 0.66667-0.56 1.76-0.8 1.0933-0.26667 2.4-0.26667 2.4533 0 3.6533 1.04 1.2267 1.04 1.2267 3.5733v6.9067q0 1.12 0.37334 1.52 0.37333 0.4 1.28 0.4h0.08v1.12h-3.6l-0.42667-2.2933h-0.21334q-0.56 0.74666-1.0933 1.3333-0.53333 0.56-1.2533 0.90667-0.69334 0.32-1.8133 0.32zm0.61333-1.6533q1.6267 0 2.5867-0.98666 0.96-1.0133 0.96-2.72v-2.16l-1.7067 0.08q-2.2667 0.10667-3.1467 0.93334-0.85334 0.8-0.85334 2.3733 0 2.48 2.16 2.48zm9.8134 1.3867v-1.12h0.08q0.90667 0 1.5467-0.32 0.64-0.34667 0.64-1.6v-8.32q0-1.1733-0.66667-1.4933-0.64-0.32-1.52-0.32h-0.08v-1.12h4.1067l0.50667 2.64h0.13333q0.34667-0.8 0.74667-1.4667 0.4-0.66667 1.0667-1.04 0.66666-0.40001 1.84-0.40001 1.4667 0 2.16 0.50667 0.72 0.50667 0.72 1.44 0 0.82667-0.58666 1.36-0.56001 0.53333-1.8933 0.53333 0-1.0933-0.32-1.5733-0.32-0.50666-1.0933-0.50666-0.74666 0-1.2533 0.58666-0.50667 0.58667-0.8 1.4933-0.29334 0.90667-0.42667 1.8933-0.13333 0.96-0.13333 1.7333v4.1867q0 1.1733 0.64 1.4933 0.66667 0.29333 1.5467 0.29333h0.74666v1.12zm17.92-10.08 0.66667-4.2133-4.08 2.5333-0.93333-2.08 4.48-1.3333-4.48-1.3333 0.93333-2.1067 4.1067 2.5867-0.69333-4.24h2.32l-0.74666 4.2133 4.1333-2.5067 0.93334 2.08-4.5067 1.3067 4.5067 1.3067-0.93334 2.0533-4.1333-2.48 0.74666 4.2133zm8.7467 12.267q1.84-1.12 2.6933-2.8 0.88-1.68 1.12-3.7067 0.26667-2.0267 0.26667-4.1333 0-2.1333-0.26667-4.1333-0.24-2.0267-1.12-3.7067-0.85334-1.68-2.6933-2.7733v-1.2q2.4533 0.96 3.9467 2.5067 1.52 1.5467 2.2133 3.84 0.69333 2.2667 0.69333 5.4667 0 3.2-0.69333 5.52-0.69333 2.2933-2.2133 3.8133-1.4933 1.5467-3.9467 2.5333z" stroke="#000" stroke-linecap="square" stroke-width=".159" style="paint-order:markers stroke fill" aria-label="(const char*)"/>
</svg>
