<svg width="180" height="180" version="1.1" viewBox="0 0 180 180" xmlns="http://www.w3.org/2000/svg" fill="currentColor" stroke="none">
 <g stroke="#000" stroke-linecap="square" stroke-width=".159" style="paint-order:markers stroke fill" aria-label="formatter(char*)
formatter
  ( char * )
formatter (
  char*
)
formatter(char *)
formatter (char* )">
  <path d="m16.5 17.7v1.15h-1.56q-0.741 0-1.03 0.307-0.285 0.299-0.285 1.07v0.741h2.88v1.07h-2.88v7.31h-1.38v-7.31h-2.24v-1.07h2.24v-0.584q0-1.38 0.629-2.03 0.636-0.651 1.98-0.651zm5.88 4.23q-1.05 0-1.59 0.816-0.539 0.816-0.539 2.42 0 1.59 0.539 2.42 0.539 0.816 1.59 0.816 1.06 0 1.59-0.816 0.539-0.824 0.539-2.42 0-1.6-0.539-2.42-0.539-0.816-1.59-0.816zm0-1.17q1.74 0 2.67 1.13 0.928 1.13 0.928 3.27 0 2.15-0.921 3.28-0.921 1.12-2.67 1.12-1.74 0-2.67-1.12-0.921-1.13-0.921-3.28 0-2.14 0.921-3.27 0.921-1.13 2.67-1.13zm13.3 1.93q-0.442-0.344-0.898-0.502-0.457-0.157-1-0.157-1.29 0-1.97 0.809t-0.681 2.34v4.17h-1.39v-8.39h1.39v1.64q0.344-0.891 1.06-1.36 0.719-0.479 1.7-0.479 0.509 0 0.951 0.127t0.846 0.397zm5.65-0.876q0.255-0.539 0.644-0.794 0.397-0.262 0.951-0.262 1.01 0 1.42 0.786 0.419 0.779 0.419 2.94v4.86h-1.26v-4.8q0-1.77-0.202-2.2-0.195-0.434-0.719-0.434-0.599 0-0.824 0.464-0.217 0.457-0.217 2.17v4.8h-1.26v-4.8q0-1.8-0.217-2.22-0.21-0.419-0.764-0.419-0.547 0-0.764 0.464-0.21 0.457-0.21 2.17v4.8h-1.25v-8.39h1.25v0.719q0.247-0.449 0.614-0.681 0.374-0.24 0.846-0.24 0.569 0 0.943 0.262 0.382 0.262 0.591 0.794zm9.43 3.32h-0.457q-1.21 0-1.82 0.427-0.606 0.419-0.606 1.26 0 0.756 0.457 1.18 0.457 0.419 1.27 0.419 1.14 0 1.79-0.786 0.651-0.794 0.659-2.19v-0.307zm2.67-0.569v4.78h-1.39v-1.24q-0.442 0.749-1.12 1.11-0.666 0.352-1.62 0.352-1.28 0-2.04-0.719-0.764-0.726-0.764-1.94 0-1.4 0.936-2.13 0.943-0.726 2.76-0.726h1.85v-0.217q-0.0075-1-0.509-1.45-0.502-0.457-1.6-0.457-0.704 0-1.42 0.202-0.719 0.202-1.4 0.591v-1.38q0.764-0.292 1.46-0.434 0.704-0.15 1.36-0.15 1.04 0 1.77 0.307 0.741 0.307 1.2 0.921 0.285 0.374 0.404 0.928 0.12 0.547 0.12 1.65zm5.9-5.98v2.38h3.13v1.07h-3.13v4.55q0 0.928 0.352 1.3t1.23 0.367h1.55v1.1h-1.68q-1.55 0-2.19-0.621-0.636-0.621-0.636-2.14v-4.55h-2.24v-1.07h2.24v-2.38zm9.23 0v2.38h3.13v1.07h-3.13v4.55q0 0.928 0.352 1.3 0.352 0.367 1.23 0.367h1.55v1.1h-1.68q-1.55 0-2.19-0.621t-0.636-2.14v-4.55h-2.24v-1.07h2.24v-2.38zm13 6.23v0.674h-5.97v0.0449q0 1.37 0.711 2.12 0.719 0.749 2.02 0.749 0.659 0 1.38-0.21 0.719-0.21 1.53-0.636v1.37q-0.786 0.322-1.52 0.479-0.726 0.165-1.41 0.165-1.95 0-3.05-1.17-1.1-1.18-1.1-3.23 0-2.01 1.08-3.2 1.08-1.2 2.87-1.2 1.6 0 2.52 1.09 0.928 1.09 0.928 2.96zm-1.38-0.404q-0.03-1.21-0.576-1.84-0.539-0.636-1.56-0.636-0.996 0-1.64 0.659-0.644 0.659-0.764 1.83zm10.9-1.71q-0.442-0.344-0.898-0.502-0.457-0.157-1-0.157-1.29 0-1.97 0.809-0.681 0.809-0.681 2.34v4.17h-1.39v-8.39h1.39v1.64q0.344-0.891 1.06-1.36 0.719-0.479 1.7-0.479 0.509 0 0.951 0.127t0.846 0.397zm7.21-4.98q-0.996 1.71-1.49 3.41-0.487 1.69-0.487 3.41 0 1.71 0.487 3.41 0.494 1.7 1.49 3.42h-1.2q-1.13-1.78-1.68-3.47-0.554-1.69-0.554-3.37 0-1.67 0.554-3.36 0.554-1.69 1.68-3.46zm10.5 11.2q-0.554 0.322-1.15 0.479-0.584 0.165-1.2 0.165-1.95 0-3.05-1.17-1.09-1.17-1.09-3.23 0-2.07 1.09-3.23 1.1-1.17 3.05-1.17 0.606 0 1.18 0.157 0.576 0.157 1.16 0.487v1.44q-0.547-0.487-1.1-0.704-0.547-0.217-1.24-0.217-1.3 0-1.99 0.839-0.696 0.839-0.696 2.4 0 1.55 0.696 2.4 0.704 0.839 1.99 0.839 0.719 0 1.29-0.217 0.569-0.225 1.06-0.689zm9.16-4.77v5.2h-1.39v-5.2q0-1.13-0.397-1.66t-1.24-0.532q-0.966 0-1.49 0.689-0.517 0.681-0.517 1.96v4.74h-1.38v-11.6h1.38v4.52q0.367-0.719 0.996-1.09 0.629-0.374 1.49-0.374 1.28 0 1.91 0.846 0.636 0.839 0.636 2.55zm6.62 0.981h-0.457q-1.21 0-1.82 0.427-0.606 0.419-0.606 1.26 0 0.756 0.457 1.18 0.457 0.419 1.27 0.419 1.14 0 1.79-0.786 0.651-0.794 0.659-2.19v-0.307zm2.67-0.569v4.78h-1.39v-1.24q-0.442 0.749-1.12 1.11-0.666 0.352-1.62 0.352-1.28 0-2.04-0.719-0.764-0.726-0.764-1.94 0-1.4 0.936-2.13 0.943-0.726 2.76-0.726h1.85v-0.217q-7e-3 -1-0.509-1.45-0.502-0.457-1.6-0.457-0.704 0-1.42 0.202t-1.4 0.591v-1.38q0.764-0.292 1.46-0.434 0.704-0.15 1.36-0.15 1.04 0 1.77 0.307 0.741 0.307 1.2 0.921 0.284 0.374 0.404 0.928 0.12 0.547 0.12 1.65zm9.95-1.87q-0.442-0.344-0.898-0.502-0.457-0.157-1-0.157-1.29 0-1.97 0.809-0.681 0.809-0.681 2.34v4.17h-1.39v-8.39h1.39v1.64q0.344-0.891 1.06-1.36 0.719-0.479 1.7-0.479 0.509 0 0.951 0.127t0.846 0.397zm8.57-2.68-2.68 1.45 2.68 1.46-0.427 0.734-2.52-1.52v2.82h-0.861v-2.82l-2.52 1.52-0.427-0.734 2.68-1.46-2.68-1.45 0.427-0.741 2.52 1.52v-2.82h0.861v2.82l2.52-1.52zm3.85-2.3h1.2q1.13 1.77 1.68 3.46 0.554 1.69 0.554 3.36 0 1.68-0.554 3.38-0.554 1.69-1.68 3.46h-1.2q0.996-1.74 1.48-3.44 0.494-1.7 0.494-3.4 0-1.71-0.494-3.41-0.487-1.7-1.48-3.41z"/>
  <path d="m16.5 36.4v1.15h-1.56q-0.741 0-1.03 0.307-0.285 0.299-0.285 1.07v0.741h2.88v1.07h-2.88v7.31h-1.38v-7.31h-2.24v-1.07h2.24v-0.584q0-1.38 0.629-2.03 0.636-0.651 1.98-0.651zm5.88 4.23q-1.05 0-1.59 0.816-0.539 0.816-0.539 2.42 0 1.59 0.539 2.42 0.539 0.816 1.59 0.816 1.06 0 1.59-0.816 0.539-0.824 0.539-2.42 0-1.6-0.539-2.42-0.539-0.816-1.59-0.816zm0-1.17q1.74 0 2.67 1.13 0.928 1.13 0.928 3.27 0 2.15-0.921 3.28-0.921 1.12-2.67 1.12-1.74 0-2.67-1.12-0.921-1.13-0.921-3.28 0-2.14 0.921-3.27 0.921-1.13 2.67-1.13zm13.3 1.93q-0.442-0.344-0.898-0.502-0.457-0.157-1-0.157-1.29 0-1.97 0.809t-0.681 2.34v4.17h-1.39v-8.39h1.39v1.64q0.344-0.891 1.06-1.36 0.719-0.479 1.7-0.479 0.509 0 0.951 0.127t0.846 0.397zm5.65-0.876q0.255-0.539 0.644-0.794 0.397-0.262 0.951-0.262 1.01 0 1.42 0.786 0.419 0.779 0.419 2.94v4.86h-1.26v-4.8q0-1.77-0.202-2.2-0.195-0.434-0.719-0.434-0.599 0-0.824 0.464-0.217 0.457-0.217 2.17v4.8h-1.26v-4.8q0-1.8-0.217-2.22-0.21-0.419-0.764-0.419-0.547 0-0.764 0.464-0.21 0.457-0.21 2.17v4.8h-1.25v-8.39h1.25v0.719q0.247-0.449 0.614-0.681 0.374-0.24 0.846-0.24 0.569 0 0.943 0.262 0.382 0.262 0.591 0.794zm9.43 3.32h-0.457q-1.21 0-1.82 0.427-0.606 0.419-0.606 1.26 0 0.756 0.457 1.18 0.457 0.419 1.27 0.419 1.14 0 1.79-0.786 0.651-0.794 0.659-2.19v-0.307zm2.67-0.569v4.78h-1.39v-1.24q-0.442 0.749-1.12 1.11-0.666 0.352-1.62 0.352-1.28 0-2.04-0.719-0.764-0.726-0.764-1.94 0-1.4 0.936-2.13 0.943-0.726 2.76-0.726h1.85v-0.217q-0.0075-1-0.509-1.45-0.502-0.457-1.6-0.457-0.704 0-1.42 0.202-0.719 0.202-1.4 0.591v-1.38q0.764-0.292 1.46-0.434 0.704-0.15 1.36-0.15 1.04 0 1.77 0.307 0.741 0.307 1.2 0.921 0.285 0.374 0.404 0.928 0.12 0.547 0.12 1.65zm5.9-5.98v2.38h3.13v1.07h-3.13v4.55q0 0.928 0.352 1.3t1.23 0.367h1.55v1.1h-1.68q-1.55 0-2.19-0.621-0.636-0.621-0.636-2.14v-4.55h-2.24v-1.07h2.24v-2.38zm9.23 0v2.38h3.13v1.07h-3.13v4.55q0 0.928 0.352 1.3 0.352 0.367 1.23 0.367h1.55v1.1h-1.68q-1.55 0-2.19-0.621t-0.636-2.14v-4.55h-2.24v-1.07h2.24v-2.38zm13 6.23v0.674h-5.97v0.0449q0 1.37 0.711 2.12 0.719 0.749 2.02 0.749 0.659 0 1.38-0.21 0.719-0.21 1.53-0.636v1.37q-0.786 0.322-1.52 0.479-0.726 0.165-1.41 0.165-1.95 0-3.05-1.17-1.1-1.18-1.1-3.23 0-2.01 1.08-3.2 1.08-1.2 2.87-1.2 1.6 0 2.52 1.09 0.928 1.09 0.928 2.96zm-1.38-0.404q-0.03-1.21-0.576-1.84-0.539-0.636-1.56-0.636-0.996 0-1.64 0.659-0.644 0.659-0.764 1.83zm10.9-1.71q-0.442-0.344-0.898-0.502-0.457-0.157-1-0.157-1.29 0-1.97 0.809-0.681 0.809-0.681 2.34v4.17h-1.39v-8.39h1.39v1.64q0.344-0.891 1.06-1.36 0.719-0.479 1.7-0.479 0.509 0 0.951 0.127t0.846 0.397z"/>
  <path d="m33.6 55.1q-0.996 1.71-1.49 3.41-0.487 1.69-0.487 3.41 0 1.71 0.487 3.41 0.494 1.7 1.49 3.42h-1.2q-1.13-1.78-1.68-3.47-0.554-1.69-0.554-3.37 0-1.67 0.554-3.36 0.554-1.69 1.68-3.46zm19.8 11.2q-0.554 0.322-1.15 0.479-0.584 0.165-1.2 0.165-1.95 0-3.05-1.17-1.09-1.17-1.09-3.23t1.09-3.23q1.1-1.17 3.05-1.17 0.606 0 1.18 0.157t1.16 0.487v1.44q-0.547-0.487-1.1-0.704-0.547-0.217-1.24-0.217-1.3 0-1.99 0.839-0.696 0.839-0.696 2.4 0 1.55 0.696 2.4 0.704 0.839 1.99 0.839 0.719 0 1.29-0.217 0.569-0.225 1.06-0.689zm9.16-4.77v5.2h-1.39v-5.2q0-1.13-0.397-1.66-0.397-0.532-1.24-0.532-0.966 0-1.49 0.689-0.517 0.681-0.517 1.96v4.74h-1.38v-11.6h1.38v4.52q0.367-0.719 0.996-1.09 0.629-0.374 1.49-0.374 1.28 0 1.91 0.846 0.636 0.839 0.636 2.55zm6.62 0.981h-0.457q-1.21 0-1.82 0.427-0.606 0.419-0.606 1.26 0 0.756 0.457 1.18t1.27 0.419q1.14 0 1.79-0.786 0.651-0.794 0.659-2.19v-0.307zm2.67-0.569v4.78h-1.39v-1.24q-0.442 0.749-1.12 1.11-0.666 0.352-1.62 0.352-1.28 0-2.04-0.719-0.764-0.726-0.764-1.94 0-1.4 0.936-2.13 0.943-0.726 2.76-0.726h1.85v-0.217q-0.0075-1-0.509-1.45-0.502-0.457-1.6-0.457-0.704 0-1.42 0.202-0.719 0.202-1.4 0.591v-1.38q0.764-0.292 1.46-0.434 0.704-0.15 1.36-0.15 1.04 0 1.77 0.307 0.741 0.307 1.2 0.921 0.285 0.374 0.404 0.928 0.12 0.547 0.12 1.65zm9.95-1.87q-0.442-0.344-0.898-0.502-0.457-0.157-1-0.157-1.29 0-1.97 0.809-0.681 0.809-0.681 2.34v4.17h-1.39v-8.39h1.39v1.64q0.344-0.891 1.06-1.36 0.719-0.479 1.7-0.479 0.509 0 0.951 0.127 0.442 0.127 0.846 0.397zm17.8-2.68-2.68 1.45 2.68 1.46-0.427 0.734-2.52-1.52v2.82h-0.861v-2.82l-2.52 1.52-0.427-0.734 2.68-1.46-2.68-1.45 0.427-0.741 2.52 1.52v-2.82h0.861v2.82l2.52-1.52zm13.1-2.3h1.2q1.13 1.77 1.68 3.46 0.554 1.69 0.554 3.36 0 1.68-0.554 3.38-0.554 1.69-1.68 3.46h-1.2q0.996-1.74 1.48-3.44 0.494-1.7 0.494-3.4 0-1.71-0.494-3.41-0.487-1.7-1.48-3.41z"/>
  <path d="m16.5 73.8v1.15h-1.56q-0.741 0-1.03 0.307-0.285 0.299-0.285 1.07v0.741h2.88v1.07h-2.88v7.31h-1.38v-7.31h-2.24v-1.07h2.24v-0.584q0-1.38 0.629-2.03 0.636-0.651 1.98-0.651zm5.88 4.23q-1.05 0-1.59 0.816-0.539 0.816-0.539 2.42 0 1.59 0.539 2.42 0.539 0.816 1.59 0.816 1.06 0 1.59-0.816 0.539-0.824 0.539-2.42 0-1.6-0.539-2.42-0.539-0.816-1.59-0.816zm0-1.17q1.74 0 2.67 1.13 0.928 1.13 0.928 3.27 0 2.15-0.921 3.28-0.921 1.12-2.67 1.12-1.74 0-2.67-1.12-0.921-1.13-0.921-3.28 0-2.14 0.921-3.27 0.921-1.13 2.67-1.13zm13.3 1.93q-0.442-0.344-0.898-0.502-0.457-0.157-1-0.157-1.29 0-1.97 0.809t-0.681 2.34v4.17h-1.39v-8.39h1.39v1.64q0.344-0.891 1.06-1.36 0.719-0.479 1.7-0.479 0.509 0 0.951 0.127 0.442 0.127 0.846 0.397zm5.65-0.876q0.255-0.539 0.644-0.794 0.397-0.262 0.951-0.262 1.01 0 1.42 0.786 0.419 0.779 0.419 2.94v4.86h-1.26v-4.8q0-1.77-0.202-2.2-0.195-0.434-0.719-0.434-0.599 0-0.824 0.464-0.217 0.457-0.217 2.17v4.8h-1.26v-4.8q0-1.8-0.217-2.22-0.21-0.419-0.764-0.419-0.547 0-0.764 0.464-0.21 0.457-0.21 2.17v4.8h-1.25v-8.39h1.25v0.719q0.247-0.449 0.614-0.681 0.374-0.24 0.846-0.24 0.569 0 0.943 0.262 0.382 0.262 0.591 0.794zm9.43 3.32h-0.457q-1.21 0-1.82 0.427-0.606 0.419-0.606 1.26 0 0.756 0.457 1.18 0.457 0.419 1.27 0.419 1.14 0 1.79-0.786 0.651-0.794 0.659-2.19v-0.307zm2.67-0.569v4.78h-1.39v-1.24q-0.442 0.749-1.12 1.11-0.666 0.352-1.62 0.352-1.28 0-2.04-0.719-0.764-0.726-0.764-1.94 0-1.4 0.936-2.13 0.943-0.726 2.76-0.726h1.85v-0.217q-0.0075-1-0.509-1.45-0.502-0.457-1.6-0.457-0.704 0-1.42 0.202-0.719 0.202-1.4 0.591v-1.38q0.764-0.292 1.46-0.434 0.704-0.15 1.36-0.15 1.04 0 1.77 0.307 0.741 0.307 1.2 0.921 0.285 0.374 0.404 0.928 0.12 0.547 0.12 1.65zm5.9-5.98v2.38h3.13v1.07h-3.13v4.55q0 0.928 0.352 1.3 0.352 0.367 1.23 0.367h1.55v1.1h-1.68q-1.55 0-2.19-0.621-0.636-0.621-0.636-2.14v-4.55h-2.24v-1.07h2.24v-2.38zm9.23 0v2.38h3.13v1.07h-3.13v4.55q0 0.928 0.352 1.3 0.352 0.367 1.23 0.367h1.55v1.1h-1.68q-1.55 0-2.19-0.621t-0.636-2.14v-4.55h-2.24v-1.07h2.24v-2.38zm13 6.23v0.674h-5.97v0.0449q0 1.37 0.711 2.12 0.719 0.749 2.02 0.749 0.659 0 1.38-0.21 0.719-0.21 1.53-0.636v1.37q-0.786 0.322-1.52 0.479-0.726 0.165-1.41 0.165-1.95 0-3.05-1.17-1.1-1.18-1.1-3.23 0-2.01 1.08-3.2 1.08-1.2 2.87-1.2 1.6 0 2.52 1.09 0.928 1.09 0.928 2.96zm-1.38-0.404q-0.03-1.21-0.576-1.84-0.539-0.636-1.56-0.636-0.996 0-1.64 0.659-0.644 0.659-0.764 1.83zm10.9-1.71q-0.442-0.344-0.898-0.502t-1-0.157q-1.29 0-1.97 0.809-0.681 0.809-0.681 2.34v4.17h-1.39v-8.39h1.39v1.64q0.344-0.891 1.06-1.36 0.719-0.479 1.7-0.479 0.509 0 0.951 0.127 0.442 0.127 0.846 0.397zm16.4-4.98q-0.996 1.71-1.49 3.41-0.487 1.69-0.487 3.41 0 1.71 0.487 3.41 0.494 1.7 1.49 3.42h-1.2q-1.13-1.78-1.68-3.47-0.554-1.69-0.554-3.37 0-1.67 0.554-3.36 0.554-1.69 1.68-3.46z"/>
  <path d="m34.9 104q-0.554 0.322-1.15 0.479-0.584 0.165-1.2 0.165-1.95 0-3.05-1.17-1.09-1.17-1.09-3.23 0-2.07 1.09-3.23 1.1-1.17 3.05-1.17 0.606 0 1.18 0.157t1.16 0.487v1.44q-0.547-0.487-1.1-0.704-0.547-0.217-1.24-0.217-1.3 0-1.99 0.839-0.696 0.839-0.696 2.4 0 1.55 0.696 2.4 0.704 0.839 1.99 0.839 0.719 0 1.29-0.217 0.569-0.225 1.06-0.689zm9.16-4.77v5.2h-1.39v-5.2q0-1.13-0.397-1.66-0.397-0.532-1.24-0.532-0.966 0-1.49 0.689-0.517 0.681-0.517 1.96v4.74h-1.38v-11.6h1.38v4.52q0.367-0.719 0.996-1.09 0.629-0.374 1.49-0.374 1.28 0 1.91 0.846 0.636 0.839 0.636 2.55zm6.62 0.981h-0.457q-1.21 0-1.82 0.427-0.606 0.419-0.606 1.26 0 0.756 0.457 1.18 0.457 0.419 1.27 0.419 1.14 0 1.79-0.786 0.651-0.794 0.659-2.19v-0.307zm2.67-0.569v4.78h-1.39v-1.24q-0.442 0.749-1.12 1.11-0.666 0.352-1.62 0.352-1.28 0-2.04-0.719-0.764-0.726-0.764-1.94 0-1.4 0.936-2.13 0.943-0.726 2.76-0.726h1.85v-0.217q-0.0075-1-0.509-1.45-0.502-0.457-1.6-0.457-0.704 0-1.42 0.202-0.719 0.202-1.4 0.591v-1.38q0.764-0.292 1.46-0.434 0.704-0.15 1.36-0.15 1.04 0 1.77 0.307 0.741 0.307 1.2 0.921 0.285 0.374 0.404 0.928 0.12 0.547 0.12 1.65zm9.95-1.87q-0.442-0.344-0.898-0.502t-1-0.157q-1.29 0-1.97 0.809-0.681 0.809-0.681 2.34v4.17h-1.39v-8.39h1.39v1.64q0.344-0.891 1.06-1.36 0.719-0.479 1.7-0.479 0.509 0 0.951 0.127 0.442 0.127 0.846 0.397zm8.57-2.68-2.68 1.45 2.68 1.46-0.427 0.734-2.52-1.52v2.82h-0.861v-2.82l-2.52 1.52-0.427-0.734 2.68-1.46-2.68-1.45 0.427-0.741 2.52 1.52v-2.82h0.861v2.82l2.52-1.52z"/>
  <path d="m11.1 111h1.2q1.13 1.77 1.68 3.46 0.554 1.69 0.554 3.36 0 1.68-0.554 3.38-0.554 1.69-1.68 3.46h-1.2q0.996-1.74 1.48-3.44 0.494-1.7 0.494-3.4 0-1.71-0.494-3.41-0.487-1.7-1.48-3.41z"/>
  <path d="m16.5 130v1.15h-1.56q-0.741 0-1.03 0.307-0.285 0.299-0.285 1.07v0.741h2.88v1.07h-2.88v7.31h-1.38v-7.31h-2.24v-1.07h2.24v-0.584q0-1.38 0.629-2.03 0.636-0.651 1.98-0.651zm5.88 4.23q-1.05 0-1.59 0.816-0.539 0.816-0.539 2.42 0 1.59 0.539 2.42 0.539 0.816 1.59 0.816 1.06 0 1.59-0.816 0.539-0.824 0.539-2.42 0-1.6-0.539-2.42-0.539-0.816-1.59-0.816zm0-1.17q1.74 0 2.67 1.13 0.928 1.13 0.928 3.27 0 2.15-0.921 3.28-0.921 1.12-2.67 1.12-1.74 0-2.67-1.12-0.921-1.13-0.921-3.28 0-2.14 0.921-3.27 0.921-1.13 2.67-1.13zm13.3 1.93q-0.442-0.344-0.898-0.502-0.457-0.157-1-0.157-1.29 0-1.97 0.809-0.681 0.809-0.681 2.34v4.17h-1.39v-8.39h1.39v1.64q0.344-0.891 1.06-1.36 0.719-0.479 1.7-0.479 0.509 0 0.951 0.127t0.846 0.397zm5.65-0.876q0.255-0.539 0.644-0.794 0.397-0.262 0.951-0.262 1.01 0 1.42 0.786 0.419 0.779 0.419 2.94v4.86h-1.26v-4.8q0-1.77-0.202-2.2-0.195-0.434-0.719-0.434-0.599 0-0.824 0.464-0.217 0.457-0.217 2.17v4.8h-1.26v-4.8q0-1.8-0.217-2.22-0.21-0.419-0.764-0.419-0.547 0-0.764 0.464-0.21 0.457-0.21 2.17v4.8h-1.25v-8.39h1.25v0.719q0.247-0.449 0.614-0.681 0.374-0.24 0.846-0.24 0.569 0 0.943 0.262 0.382 0.262 0.591 0.794zm9.43 3.32h-0.457q-1.21 0-1.82 0.427-0.606 0.419-0.606 1.26 0 0.756 0.457 1.18 0.457 0.419 1.27 0.419 1.14 0 1.79-0.786 0.651-0.794 0.659-2.19v-0.307zm2.67-0.569v4.78h-1.39v-1.24q-0.442 0.749-1.12 1.11-0.666 0.352-1.62 0.352-1.28 0-2.04-0.719-0.764-0.726-0.764-1.94 0-1.4 0.936-2.13 0.943-0.726 2.76-0.726h1.85v-0.217q-0.0075-1-0.509-1.45-0.502-0.457-1.6-0.457-0.704 0-1.42 0.202-0.719 0.202-1.4 0.591v-1.38q0.764-0.292 1.46-0.434 0.704-0.15 1.36-0.15 1.04 0 1.77 0.307 0.741 0.307 1.2 0.921 0.285 0.374 0.404 0.928 0.12 0.547 0.12 1.65zm5.9-5.98v2.38h3.13v1.07h-3.13v4.55q0 0.928 0.352 1.3t1.23 0.367h1.55v1.1h-1.68q-1.55 0-2.19-0.621-0.636-0.621-0.636-2.14v-4.55h-2.24v-1.07h2.24v-2.38zm9.23 0v2.38h3.13v1.07h-3.13v4.55q0 0.928 0.352 1.3 0.352 0.367 1.23 0.367h1.55v1.1h-1.68q-1.55 0-2.19-0.621t-0.636-2.14v-4.55h-2.24v-1.07h2.24v-2.38zm13 6.23v0.674h-5.97v0.0449q0 1.37 0.711 2.12 0.719 0.749 2.02 0.749 0.659 0 1.38-0.21 0.719-0.21 1.53-0.636v1.37q-0.786 0.322-1.52 0.479-0.726 0.165-1.41 0.165-1.95 0-3.05-1.17-1.1-1.18-1.1-3.23 0-2.01 1.08-3.2 1.08-1.2 2.87-1.2 1.6 0 2.52 1.09 0.928 1.09 0.928 2.96zm-1.38-0.404q-0.03-1.21-0.576-1.84-0.539-0.636-1.56-0.636-0.996 0-1.64 0.659-0.644 0.659-0.764 1.83zm10.9-1.71q-0.442-0.344-0.898-0.502t-1-0.157q-1.29 0-1.97 0.809-0.681 0.809-0.681 2.34v4.17h-1.39v-8.39h1.39v1.64q0.344-0.891 1.06-1.36 0.719-0.479 1.7-0.479 0.509 0 0.951 0.127t0.846 0.397zm7.21-4.98q-0.996 1.71-1.49 3.41-0.487 1.69-0.487 3.41 0 1.71 0.487 3.41 0.494 1.7 1.49 3.42h-1.2q-1.13-1.78-1.68-3.47-0.554-1.69-0.554-3.37 0-1.67 0.554-3.36 0.554-1.69 1.68-3.46zm10.5 11.2q-0.554 0.322-1.15 0.479-0.584 0.165-1.2 0.165-1.95 0-3.05-1.17-1.09-1.17-1.09-3.23 0-2.07 1.09-3.23 1.1-1.17 3.05-1.17 0.606 0 1.18 0.157 0.576 0.157 1.16 0.487v1.44q-0.547-0.487-1.1-0.704-0.547-0.217-1.24-0.217-1.3 0-1.99 0.839-0.696 0.839-0.696 2.4 0 1.55 0.696 2.4 0.704 0.839 1.99 0.839 0.719 0 1.29-0.217 0.569-0.225 1.06-0.689zm9.16-4.77v5.2h-1.39v-5.2q0-1.13-0.397-1.66t-1.24-0.532q-0.966 0-1.49 0.689-0.517 0.681-0.517 1.96v4.74h-1.38v-11.6h1.38v4.52q0.367-0.719 0.996-1.09 0.629-0.374 1.49-0.374 1.28 0 1.91 0.846 0.636 0.839 0.636 2.55zm6.62 0.981h-0.457q-1.21 0-1.82 0.427-0.606 0.419-0.606 1.26 0 0.756 0.457 1.18 0.457 0.419 1.27 0.419 1.14 0 1.79-0.786 0.651-0.794 0.659-2.19v-0.307zm2.67-0.569v4.78h-1.39v-1.24q-0.442 0.749-1.12 1.11-0.666 0.352-1.62 0.352-1.28 0-2.04-0.719-0.764-0.726-0.764-1.94 0-1.4 0.936-2.13 0.943-0.726 2.76-0.726h1.85v-0.217q-7e-3 -1-0.509-1.45-0.502-0.457-1.6-0.457-0.704 0-1.42 0.202-0.719 0.202-1.4 0.591v-1.38q0.764-0.292 1.46-0.434 0.704-0.15 1.36-0.15 1.04 0 1.77 0.307 0.741 0.307 1.2 0.921 0.284 0.374 0.404 0.928 0.12 0.547 0.12 1.65zm9.95-1.87q-0.442-0.344-0.898-0.502-0.457-0.157-1-0.157-1.29 0-1.97 0.809-0.681 0.809-0.681 2.34v4.17h-1.39v-8.39h1.39v1.64q0.344-0.891 1.06-1.36 0.719-0.479 1.7-0.479 0.509 0 0.951 0.127t0.846 0.397zm17.8-2.68-2.68 1.45 2.68 1.46-0.427 0.734-2.52-1.52v2.82h-0.861v-2.82l-2.52 1.52-0.427-0.734 2.68-1.46-2.68-1.45 0.427-0.741 2.52 1.52v-2.82h0.861v2.82l2.52-1.52zm3.85-2.3h1.2q1.13 1.77 1.68 3.46 0.554 1.69 0.554 3.36 0 1.68-0.554 3.38-0.554 1.69-1.68 3.46h-1.2q0.996-1.74 1.48-3.44 0.494-1.7 0.494-3.4 0-1.71-0.494-3.41-0.487-1.7-1.48-3.41z"/>
  <path d="m16.5 149v1.15h-1.56q-0.741 0-1.03 0.307-0.285 0.299-0.285 1.07v0.741h2.88v1.07h-2.88v7.31h-1.38v-7.31h-2.24v-1.07h2.24v-0.584q0-1.38 0.629-2.03 0.636-0.651 1.98-0.651zm5.88 4.23q-1.05 0-1.59 0.816-0.539 0.816-0.539 2.42 0 1.59 0.539 2.42 0.539 0.816 1.59 0.816 1.06 0 1.59-0.816 0.539-0.824 0.539-2.42 0-1.6-0.539-2.42-0.539-0.816-1.59-0.816zm0-1.17q1.74 0 2.67 1.13 0.928 1.13 0.928 3.27 0 2.15-0.921 3.28-0.921 1.12-2.67 1.12-1.74 0-2.67-1.12-0.921-1.13-0.921-3.28 0-2.14 0.921-3.27 0.921-1.13 2.67-1.13zm13.3 1.93q-0.442-0.344-0.898-0.502-0.457-0.157-1-0.157-1.29 0-1.97 0.809t-0.681 2.34v4.17h-1.39v-8.39h1.39v1.64q0.344-0.891 1.06-1.36 0.719-0.479 1.7-0.479 0.509 0 0.951 0.127t0.846 0.397zm5.65-0.876q0.255-0.539 0.644-0.794 0.397-0.262 0.951-0.262 1.01 0 1.42 0.786 0.419 0.779 0.419 2.94v4.86h-1.26v-4.8q0-1.77-0.202-2.2-0.195-0.434-0.719-0.434-0.599 0-0.824 0.464-0.217 0.457-0.217 2.17v4.8h-1.26v-4.8q0-1.8-0.217-2.22-0.21-0.419-0.764-0.419-0.547 0-0.764 0.464-0.21 0.457-0.21 2.17v4.8h-1.25v-8.39h1.25v0.719q0.247-0.449 0.614-0.681 0.374-0.24 0.846-0.24 0.569 0 0.943 0.262 0.382 0.262 0.591 0.794zm9.43 3.32h-0.457q-1.21 0-1.82 0.427-0.606 0.419-0.606 1.26 0 0.756 0.457 1.18 0.457 0.419 1.27 0.419 1.14 0 1.79-0.786 0.651-0.794 0.659-2.19v-0.307zm2.67-0.569v4.78h-1.39v-1.24q-0.442 0.749-1.12 1.11-0.666 0.352-1.62 0.352-1.28 0-2.04-0.719-0.764-0.726-0.764-1.94 0-1.4 0.936-2.13 0.943-0.726 2.76-0.726h1.85v-0.217q-0.0075-1-0.509-1.45-0.502-0.457-1.6-0.457-0.704 0-1.42 0.202-0.719 0.202-1.4 0.591v-1.38q0.764-0.292 1.46-0.434 0.704-0.15 1.36-0.15 1.04 0 1.77 0.307 0.741 0.307 1.2 0.921 0.285 0.374 0.404 0.928 0.12 0.547 0.12 1.65zm5.9-5.98v2.38h3.13v1.07h-3.13v4.55q0 0.928 0.352 1.3 0.352 0.367 1.23 0.367h1.55v1.1h-1.68q-1.55 0-2.19-0.621-0.636-0.621-0.636-2.14v-4.55h-2.24v-1.07h2.24v-2.38zm9.23 0v2.38h3.13v1.07h-3.13v4.55q0 0.928 0.352 1.3 0.352 0.367 1.23 0.367h1.55v1.1h-1.68q-1.55 0-2.19-0.621t-0.636-2.14v-4.55h-2.24v-1.07h2.24v-2.38zm13 6.23v0.674h-5.97v0.0449q0 1.37 0.711 2.12 0.719 0.749 2.02 0.749 0.659 0 1.38-0.21 0.719-0.21 1.53-0.636v1.37q-0.786 0.322-1.52 0.479-0.726 0.165-1.41 0.165-1.95 0-3.05-1.17-1.1-1.18-1.1-3.23 0-2.01 1.08-3.2 1.08-1.2 2.87-1.2 1.6 0 2.52 1.09 0.928 1.09 0.928 2.96zm-1.38-0.404q-0.03-1.21-0.576-1.84-0.539-0.636-1.56-0.636-0.996 0-1.64 0.659-0.644 0.659-0.764 1.83zm10.9-1.71q-0.442-0.344-0.898-0.502-0.457-0.157-1-0.157-1.29 0-1.97 0.809-0.681 0.809-0.681 2.34v4.17h-1.39v-8.39h1.39v1.64q0.344-0.891 1.06-1.36 0.719-0.479 1.7-0.479 0.509 0 0.951 0.127t0.846 0.397zm16.4-4.98q-0.996 1.71-1.49 3.41-0.487 1.69-0.487 3.41 0 1.71 0.487 3.41 0.494 1.7 1.49 3.42h-1.2q-1.13-1.78-1.68-3.47-0.554-1.69-0.554-3.37 0-1.67 0.554-3.36 0.554-1.69 1.68-3.46zm10.5 11.2q-0.554 0.322-1.15 0.479-0.584 0.165-1.2 0.165-1.95 0-3.05-1.17-1.09-1.17-1.09-3.23t1.09-3.23q1.1-1.17 3.05-1.17 0.606 0 1.18 0.157 0.576 0.157 1.16 0.487v1.44q-0.547-0.487-1.1-0.704-0.547-0.217-1.24-0.217-1.3 0-1.99 0.839-0.696 0.839-0.696 2.4 0 1.55 0.696 2.4 0.704 0.839 1.99 0.839 0.719 0 1.29-0.217 0.569-0.225 1.06-0.689zm9.16-4.77v5.2h-1.39v-5.2q0-1.13-0.397-1.66-0.397-0.532-1.24-0.532-0.966 0-1.49 0.689-0.517 0.681-0.517 1.96v4.74h-1.38v-11.6h1.38v4.52q0.367-0.719 0.996-1.09 0.629-0.374 1.49-0.374 1.28 0 1.91 0.846 0.636 0.839 0.636 2.55zm6.62 0.981h-0.457q-1.21 0-1.82 0.427-0.606 0.419-0.606 1.26 0 0.756 0.457 1.18 0.457 0.419 1.27 0.419 1.14 0 1.79-0.786 0.651-0.794 0.659-2.19v-0.307zm2.67-0.569v4.78h-1.39v-1.24q-0.442 0.749-1.12 1.11-0.666 0.352-1.62 0.352-1.28 0-2.04-0.719-0.764-0.726-0.764-1.94 0-1.4 0.936-2.13 0.943-0.726 2.76-0.726h1.85v-0.217q-7e-3 -1-0.509-1.45-0.502-0.457-1.6-0.457-0.704 0-1.42 0.202t-1.4 0.591v-1.38q0.764-0.292 1.46-0.434 0.704-0.15 1.36-0.15 1.04 0 1.77 0.307 0.741 0.307 1.2 0.921 0.284 0.374 0.404 0.928 0.12 0.547 0.12 1.65zm9.95-1.87q-0.442-0.344-0.898-0.502-0.457-0.157-1-0.157-1.29 0-1.97 0.809-0.681 0.809-0.681 2.34v4.17h-1.39v-8.39h1.39v1.64q0.344-0.891 1.06-1.36 0.719-0.479 1.7-0.479 0.509 0 0.951 0.127t0.846 0.397zm8.57-2.68-2.68 1.45 2.68 1.46-0.427 0.734-2.52-1.52v2.82h-0.861v-2.82l-2.52 1.52-0.427-0.734 2.68-1.46-2.68-1.45 0.427-0.741 2.52 1.52v-2.82h0.861v2.82l2.52-1.52zm13.1-2.3h1.2q1.13 1.77 1.68 3.46 0.554 1.69 0.554 3.36 0 1.68-0.554 3.38-0.554 1.69-1.68 3.46h-1.2q0.996-1.74 1.48-3.44 0.494-1.7 0.494-3.4 0-1.71-0.494-3.41-0.487-1.7-1.48-3.41z"/>
 </g>
</svg>
