<svg width="180" height="180" version="1.1" viewBox="0 0 180 180" xmlns="http://www.w3.org/2000/svg" fill="currentColor" stroke="none">
 <path d="m10.6 27.4v-1.1h8.75v1.1zm9.33-2.65v-0.747l7-11.6h-4.05q-0.821 0-1.14 0.467-0.317 0.448-0.392 1.06l-0.0933 0.803h-0.971l0.0933-3.27h8.85v0.765l-7.02 11.6h4.7q0.84 0 1.16-0.448 0.317-0.467 0.392-1.08l0.0933-0.803h0.971l-0.0933 3.27zm14.6 0.205q-1.05 0-1.64-0.243-0.597-0.243-0.84-0.597-0.224-0.373-0.224-0.765 0-0.355 0.168-0.579 0.187-0.243 0.392-0.317 0.261 0.579 0.765 1.03 0.523 0.448 1.4 0.448 1.55 0 2.28-1.38 0.747-1.38 0.84-4.2-0.411 0.485-1.08 0.877-0.672 0.392-1.66 0.392-1.62 0-2.65-0.952-1.03-0.952-1.03-2.84 0-1.34 0.467-2.37 0.485-1.05 1.38-1.62 0.896-0.597 2.15-0.597 1.27 0 2.24 0.653 0.989 0.653 1.55 2.03t0.56 3.58q0 1.47-0.28 2.82-0.28 1.33-0.896 2.37-0.597 1.05-1.57 1.66-0.952 0.597-2.31 0.597zm0.803-6.44q0.915 0 1.51-0.448 0.597-0.467 0.84-1.06-0.0373-2.5-0.709-3.62-0.653-1.12-1.74-1.12-0.971 0-1.53 0.877-0.541 0.859-0.541 2.5 0 1.53 0.541 2.2 0.541 0.672 1.62 0.672zm10.2 6.42q-1.85 0-2.84-1.23-0.971-1.25-0.971-3.94 0-2.71 0.971-3.96 0.989-1.25 2.84-1.25 1.08 0 1.75 0.467 0.691 0.448 1.1 1.18h0.112q-0.056-0.467-0.0933-1.03-0.0187-0.579-0.0187-1.03v-1.53q0-0.821-0.467-1.05-0.448-0.224-1.06-0.224h-0.149v-0.784h3.43v12.1q0 0.821 0.448 1.05 0.467 0.224 1.08 0.224h0.149v0.784h-3.15l-0.205-1.68h-0.0747q-0.411 0.859-1.08 1.36t-1.77 0.504zm0.317-1.19q1.46 0 2-0.971 0.541-0.989 0.541-3.01 0-1.94-0.541-2.97-0.541-1.05-2.02-1.05-1.23 0-1.77 1.05-0.523 1.03-0.523 2.99 0 1.98 0.523 2.97 0.541 0.989 1.79 0.989zm11.7 1.19q-2.03 0-3.19-1.34-1.14-1.34-1.14-3.77 0-2.61 1.08-3.94t3.06-1.33q1.81 0 2.84 1.12 1.05 1.12 1.05 3.34v0.859h-6.22q0.0373 2.03 0.728 2.97 0.709 0.915 2.05 0.915 0.971 0 1.64-0.392 0.691-0.411 1.03-0.915 0.131 0.056 0.243 0.224 0.112 0.168 0.112 0.411 0 0.373-0.355 0.803-0.355 0.429-1.08 0.747-0.728 0.299-1.85 0.299zm1.81-6.07q0-1.49-0.467-2.39-0.448-0.915-1.57-0.915-1.03 0-1.61 0.859-0.56 0.84-0.653 2.45zm3.34 5.88v-0.784h0.243q0.635 0 1.03-0.224 0.411-0.243 0.411-1.12v-5.82q0-0.821-0.411-1.05t-1.03-0.224h-0.056v-0.784h2.93l0.243 1.51h0.0933q0.56-1.05 1.25-1.36 0.709-0.336 1.57-0.336 0.896 0 1.62 0.392 0.728 0.373 1.08 1.31h0.149q0.56-1.05 1.31-1.36 0.765-0.336 1.62-0.336 1.44 0 2.24 0.877 0.803 0.859 0.803 2.78v4.41q0 0.877 0.392 1.12 0.411 0.224 1.05 0.224h0.056v0.784h-3.25v-6.44q0-1.21-0.448-1.89-0.429-0.672-1.51-0.672-0.765 0-1.23 0.392-0.448 0.373-0.653 1.01-0.187 0.635-0.187 1.38v4.09q0 0.877 0.392 1.12 0.411 0.224 1.05 0.224h0.056v0.784h-3.25v-6.44q0-1.21-0.448-1.89-0.429-0.672-1.51-0.672-0.803 0-1.29 0.429-0.467 0.411-0.672 1.1t-0.205 1.49v3.94q0 0.821 0.448 1.05 0.467 0.205 1.08 0.205h0.056v0.784zm20.9 0.187q-1.25 0-2.07-0.728-0.821-0.728-0.821-2.26 0-1.49 1.05-2.2 1.06-0.709 3.21-0.784l1.55-0.056v-1.12q0-0.672-0.112-1.18-0.112-0.523-0.485-0.821-0.373-0.299-1.14-0.299-0.709 0-1.08 0.261t-0.504 0.728q-0.112 0.448-0.112 1.05-0.784 0-1.19-0.261-0.392-0.28-0.392-0.915 0-0.653 0.448-1.05 0.467-0.392 1.23-0.56 0.765-0.187 1.68-0.187 1.72 0 2.56 0.728 0.859 0.728 0.859 2.5v4.83q0 0.784 0.261 1.06 0.261 0.28 0.896 0.28h0.056v0.784h-2.52l-0.299-1.61h-0.149q-0.392 0.523-0.765 0.933-0.373 0.392-0.877 0.635-0.485 0.224-1.27 0.224zm0.429-1.16q1.14 0 1.81-0.691 0.672-0.709 0.672-1.9v-1.51l-1.19 0.056q-1.59 0.0747-2.2 0.653-0.597 0.56-0.597 1.66 0 1.74 1.51 1.74zm6.78 0.971v-0.784h0.149q0.635 0 1.08-0.224 0.448-0.243 0.448-1.12v-5.82q0-0.821-0.448-1.05-0.429-0.224-1.05-0.224h-0.0933v-0.784h3.02l0.243 1.51h0.0933q0.579-1.05 1.29-1.36 0.728-0.336 1.62-0.336 1.47 0 2.3 0.877 0.84 0.859 0.84 2.78v4.41q0 0.877 0.373 1.12 0.392 0.224 1.03 0.224h0.0933v0.784h-3.25v-6.44q0-1.21-0.467-1.89-0.448-0.672-1.59-0.672-0.84 0-1.34 0.429-0.485 0.411-0.709 1.1-0.205 0.691-0.205 1.49v3.94q0 0.821 0.429 1.05 0.448 0.205 1.06 0.205h0.0933v0.784zm15.8 4.48q-1.94 0-2.91-0.728-0.971-0.709-0.971-2 0-1.1 0.709-1.66 0.709-0.56 1.62-0.728-0.373-0.168-0.709-0.541-0.317-0.392-0.317-0.989 0-0.56 0.28-0.971 0.299-0.411 0.933-0.784-0.803-0.336-1.25-1.1-0.429-0.784-0.429-1.72 0-1.61 0.877-2.52 0.877-0.933 2.63-0.933 0.672 0 1.27 0.187 0.597 0.187 0.859 0.429 0.261-0.299 0.728-0.653 0.467-0.355 1.08-0.355 0.56 0 0.821 0.299 0.28 0.28 0.28 0.672t-0.243 0.691q-0.224 0.28-0.747 0.28 0-0.205-0.131-0.411-0.112-0.224-0.485-0.224-0.429 0-0.803 0.224 0.317 0.392 0.523 0.933 0.205 0.523 0.205 1.33 0 1.38-0.84 2.3-0.821 0.915-2.52 0.915-0.224 0-0.523-0.0187-0.28-0.0373-0.467-0.0747-0.355 0.187-0.616 0.467-0.261 0.28-0.261 0.709 0 0.336 0.205 0.523 0.224 0.187 0.952 0.187h2.11q1.66 0 2.37 0.784 0.709 0.784 0.709 2 0 1.61-1.21 2.54-1.19 0.952-3.73 0.952zm0.411-8.96q0.915 0 1.29-0.56t0.373-1.77q0-1.27-0.392-1.87-0.373-0.597-1.29-0.597-0.896 0-1.29 0.616-0.392 0.616-0.392 1.87 0 1.19 0.392 1.75 0.411 0.56 1.31 0.56zm-0.373 8.05q1.34 0 2.07-0.299 0.728-0.28 1.01-0.803 0.299-0.504 0.299-1.16 0-0.859-0.485-1.16-0.485-0.28-1.42-0.28h-1.83q-0.523 0-0.989 0.131-0.467 0.149-0.765 0.523-0.299 0.373-0.299 1.12 0 0.541 0.205 0.971 0.205 0.448 0.728 0.691 0.523 0.261 1.47 0.261zm5.94-3.57v-0.784h0.243q0.635 0 1.08-0.224 0.448-0.243 0.448-1.12v-10q0-0.821-0.467-1.05-0.448-0.224-1.06-0.224h-0.243v-0.784h3.53v12.1q0 0.877 0.448 1.12 0.448 0.224 1.08 0.224h0.243v0.784zm10.9 0.187q-2.03 0-3.19-1.34-1.14-1.34-1.14-3.77 0-2.61 1.08-3.94t3.06-1.33q1.81 0 2.84 1.12 1.05 1.12 1.05 3.34v0.859h-6.22q0.0373 2.03 0.728 2.97 0.709 0.915 2.05 0.915 0.971 0 1.64-0.392 0.691-0.411 1.03-0.915 0.131 0.056 0.243 0.224 0.112 0.168 0.112 0.411 0 0.373-0.355 0.803t-1.08 0.747q-0.728 0.299-1.85 0.299zm1.81-6.07q0-1.49-0.467-2.39-0.448-0.915-1.57-0.915-1.03 0-1.61 0.859-0.56 0.84-0.653 2.45zm3.43 5.88v-0.784h0.056q0.635 0 1.08-0.224 0.448-0.243 0.448-1.12v-5.82q0-0.821-0.467-1.05-0.448-0.224-1.06-0.224h-0.056v-0.784h2.87l0.355 1.85h0.0933q0.243-0.56 0.523-1.03 0.28-0.467 0.747-0.728 0.467-0.28 1.29-0.28 1.03 0 1.51 0.355 0.504 0.355 0.504 1.01 0 0.579-0.411 0.952-0.392 0.373-1.33 0.373 0-0.765-0.224-1.1-0.224-0.355-0.765-0.355-0.523 0-0.877 0.411-0.355 0.411-0.56 1.05-0.205 0.635-0.299 1.33-0.0933 0.672-0.0933 1.21v2.93q0 0.821 0.448 1.05 0.467 0.205 1.08 0.205h0.523v0.784zm8.89 0v-0.784h0.243q0.635 0 1.08-0.224 0.448-0.243 0.448-1.12v-9.15q0-0.821-0.467-1.05-0.448-0.224-1.06-0.224h-0.243v-0.784h5.25q2.35 0 3.47 1.05 1.12 1.03 1.12 2.86 0 1.1-0.485 2.07-0.467 0.971-1.57 1.57-1.1 0.597-2.95 0.597h-1.18v3.15q0 0.821 0.448 1.05 0.467 0.205 1.08 0.205h0.616v0.784zm4.65-6.07q1.7 0 2.43-0.747 0.747-0.765 0.747-2.54 0-1.57-0.653-2.31-0.653-0.765-2.24-0.765h-1.27v6.37zm6.63 6.07v-0.784h0.243q0.616 0 1.06-0.205 0.467-0.224 0.467-1.05v-9.24q0-0.821-0.467-1.05-0.448-0.224-1.06-0.224h-0.243v-0.784h5.43v0.784h-0.243q-0.635 0-1.08 0.243-0.448 0.224-0.448 1.1v5.26l3.86-4.42q0.597-0.691 0.803-1.1 0.224-0.429 0.224-0.691 0-0.243-0.224-0.317-0.224-0.0933-0.691-0.0933v-0.765h4.13v0.765q-0.635 0-1.21 0.467-0.56 0.467-1.29 1.29l-2.71 3.04 3.94 5.49q0.541 0.728 1.03 1.12 0.504 0.373 1.03 0.373h0.0373v0.784h-0.205q-0.933 0-1.55-0.0747-0.597-0.0747-1.01-0.261-0.392-0.187-0.709-0.504-0.299-0.336-0.653-0.84l-3.21-4.61-1.59 1.57v2.59q0 0.877 0.448 1.12 0.448 0.224 1.08 0.224h0.243v0.784zm17.3 0.187q-1.23 0-2.2-0.523-0.952-0.523-1.51-1.64-0.541-1.14-0.541-2.97 0-2 0.541-3.14 0.56-1.16 1.49-1.62 0.952-0.485 2.13-0.485 0.784 0 1.53 0.205 0.747 0.205 1.23 0.635 0.485 0.411 0.485 1.06 0 0.635-0.429 0.915-0.411 0.261-1.23 0.261 0-0.877-0.336-1.51-0.317-0.635-1.25-0.635-0.709 0-1.25 0.373-0.523 0.373-0.821 1.31-0.28 0.933-0.28 2.61 0 1.98 0.653 2.97 0.672 0.971 2.17 0.971 0.877 0 1.51-0.355 0.653-0.373 0.971-0.952 0.317 0.261 0.317 0.728 0 0.429-0.355 0.84-0.355 0.411-1.06 0.691-0.691 0.261-1.75 0.261z" stroke="#000" stroke-linecap="square" stroke-width=".159" style="paint-order:markers stroke fill" aria-label="_Z9demanglerPKc"/>
 <path d="m27.6 136q-2.64 0-4.05-1.76-1.39-1.79-1.39-5.63 0-3.87 1.39-5.65 1.41-1.79 4.05-1.79 1.55 0 2.51 0.667 0.987 0.64 1.57 1.68h0.16q-0.08-0.667-0.133-1.47-0.0267-0.827-0.0267-1.47v-2.19q0-1.17-0.667-1.49-0.64-0.32-1.52-0.32h-0.213v-1.12h4.91v17.3q0 1.17 0.64 1.49 0.667 0.32 1.55 0.32h0.213v1.12h-4.51l-0.293-2.4h-0.107q-0.587 1.23-1.55 1.95-0.96 0.72-2.53 0.72zm0.453-1.71q2.08 0 2.85-1.39 0.773-1.41 0.773-4.29 0-2.77-0.773-4.24-0.773-1.49-2.88-1.49-1.76 0-2.53 1.49-0.747 1.47-0.747 4.27 0 2.83 0.747 4.24 0.773 1.41 2.56 1.41zm16.7 1.71q-2.91 0-4.56-1.92-1.63-1.92-1.63-5.39 0-3.73 1.55-5.63 1.55-1.89 4.37-1.89 2.59 0 4.05 1.6 1.49 1.6 1.49 4.77v1.23h-8.88q0.0533 2.91 1.04 4.24 1.01 1.31 2.93 1.31 1.39 0 2.35-0.56 0.987-0.587 1.47-1.31 0.187 0.08 0.347 0.32t0.16 0.587q0 0.533-0.507 1.15-0.507 0.613-1.55 1.07-1.04 0.427-2.64 0.427zm2.59-8.67q0-2.13-0.667-3.41-0.64-1.31-2.24-1.31-1.47 0-2.29 1.23-0.8 1.2-0.933 3.49zm4.77 8.4v-1.12h0.347q0.907 0 1.47-0.32 0.587-0.347 0.587-1.6v-8.32q0-1.17-0.587-1.49-0.587-0.32-1.47-0.32h-0.08v-1.12h4.19l0.347 2.16h0.133q0.8-1.49 1.79-1.95 1.01-0.48 2.24-0.48 1.28 0 2.32 0.56 1.04 0.533 1.55 1.87h0.213q0.8-1.49 1.87-1.95 1.09-0.48 2.32-0.48 2.05 0 3.2 1.25 1.15 1.23 1.15 3.97v6.29q0 1.25 0.56 1.6 0.587 0.32 1.49 0.32h0.08v1.12h-4.64v-9.2q0-1.73-0.64-2.69-0.613-0.96-2.16-0.96-1.09 0-1.76 0.56-0.64 0.533-0.933 1.44-0.267 0.907-0.267 1.97v5.84q0 1.25 0.56 1.6 0.587 0.32 1.49 0.32h0.08v1.12h-4.64v-9.2q0-1.73-0.64-2.69-0.613-0.96-2.16-0.96-1.15 0-1.84 0.613-0.667 0.587-0.96 1.57-0.293 0.987-0.293 2.13v5.63q0 1.17 0.64 1.49 0.667 0.293 1.55 0.293h0.08v1.12zm29.9 0.267q-1.79 0-2.96-1.04t-1.17-3.23q0-2.13 1.49-3.15 1.52-1.01 4.59-1.12l2.21-0.08v-1.6q0-0.96-0.16-1.68-0.16-0.747-0.693-1.17t-1.63-0.427q-1.01 0-1.55 0.373-0.533 0.373-0.72 1.04-0.16 0.64-0.16 1.49-1.12 0-1.71-0.373-0.56-0.4-0.56-1.31 0-0.933 0.64-1.49 0.667-0.56 1.76-0.8 1.09-0.267 2.4-0.267 2.45 0 3.65 1.04 1.23 1.04 1.23 3.57v6.91q0 1.12 0.373 1.52t1.28 0.4h0.08v1.12h-3.6l-0.427-2.29h-0.213q-0.56 0.747-1.09 1.33-0.533 0.56-1.25 0.907-0.693 0.32-1.81 0.32zm0.613-1.65q1.63 0 2.59-0.987 0.96-1.01 0.96-2.72v-2.16l-1.71 0.08q-2.27 0.107-3.15 0.933-0.853 0.8-0.853 2.37 0 2.48 2.16 2.48zm9.68 1.39v-1.12h0.213q0.907 0 1.55-0.32 0.64-0.347 0.64-1.6v-8.32q0-1.17-0.64-1.49-0.613-0.32-1.49-0.32h-0.133v-1.12h4.32l0.347 2.16h0.133q0.827-1.49 1.84-1.95 1.04-0.48 2.32-0.48 2.11 0 3.28 1.25 1.2 1.23 1.2 3.97v6.29q0 1.25 0.533 1.6 0.56 0.32 1.47 0.32h0.133v1.12h-4.64v-9.2q0-1.73-0.667-2.69-0.64-0.96-2.27-0.96-1.2 0-1.92 0.613-0.693 0.587-1.01 1.57-0.293 0.987-0.293 2.13v5.63q0 1.17 0.613 1.49 0.64 0.293 1.52 0.293h0.133v1.12zm22.6 6.4q-2.77 0-4.16-1.04-1.39-1.01-1.39-2.85 0-1.57 1.01-2.37 1.01-0.8 2.32-1.04-0.533-0.24-1.01-0.773-0.453-0.56-0.453-1.41 0-0.8 0.4-1.39 0.427-0.587 1.33-1.12-1.15-0.48-1.79-1.57-0.613-1.12-0.613-2.45 0-2.29 1.25-3.6 1.25-1.33 3.76-1.33 0.96 0 1.81 0.267 0.853 0.267 1.23 0.613 0.373-0.427 1.04-0.933 0.667-0.507 1.55-0.507 0.8 0 1.17 0.427 0.4 0.4 0.4 0.96 0 0.56-0.347 0.987-0.32 0.4-1.07 0.4 0-0.293-0.187-0.587-0.16-0.32-0.693-0.32-0.613 0-1.15 0.32 0.453 0.56 0.747 1.33 0.293 0.747 0.293 1.89 0 1.97-1.2 3.28-1.17 1.31-3.6 1.31-0.32 0-0.747-0.0267-0.4-0.0533-0.667-0.107-0.507 0.267-0.88 0.667-0.373 0.4-0.373 1.01 0 0.48 0.293 0.747 0.32 0.267 1.36 0.267h3.01q2.37 0 3.39 1.12 1.01 1.12 1.01 2.85 0 2.29-1.73 3.63-1.71 1.36-5.33 1.36zm0.587-12.8q1.31 0 1.84-0.8t0.533-2.53q0-1.81-0.56-2.67-0.533-0.853-1.84-0.853-1.28 0-1.84 0.88t-0.56 2.67q0 1.71 0.56 2.51 0.587 0.8 1.87 0.8zm-0.533 11.5q1.92 0 2.96-0.427 1.04-0.4 1.44-1.15 0.427-0.72 0.427-1.65 0-1.23-0.693-1.65-0.693-0.4-2.03-0.4h-2.61q-0.747 0-1.41 0.187-0.667 0.213-1.09 0.747-0.427 0.533-0.427 1.6 0 0.773 0.293 1.39 0.293 0.64 1.04 0.987 0.747 0.373 2.11 0.373zm8.48-5.09v-1.12h0.347q0.907 0 1.55-0.32 0.64-0.347 0.64-1.6v-14.3q0-1.17-0.667-1.49-0.64-0.32-1.52-0.32h-0.347v-1.12h5.04v17.2q0 1.25 0.64 1.6 0.64 0.32 1.55 0.32h0.347v1.12zm15.6 0.267q-2.91 0-4.56-1.92-1.63-1.92-1.63-5.39 0-3.73 1.55-5.63 1.55-1.89 4.37-1.89 2.59 0 4.05 1.6 1.49 1.6 1.49 4.77v1.23h-8.88q0.0533 2.91 1.04 4.24 1.01 1.31 2.93 1.31 1.39 0 2.35-0.56 0.987-0.587 1.47-1.31 0.187 0.08 0.347 0.32t0.16 0.587q0 0.533-0.507 1.15-0.507 0.613-1.55 1.07-1.04 0.427-2.64 0.427zm2.59-8.67q0-2.13-0.667-3.41-0.64-1.31-2.24-1.31-1.47 0-2.29 1.23-0.8 1.2-0.933 3.49zm4.91 8.4v-1.12h0.08q0.907 0 1.55-0.32 0.64-0.347 0.64-1.6v-8.32q0-1.17-0.667-1.49-0.64-0.32-1.52-0.32h-0.08v-1.12h4.11l0.507 2.64h0.133q0.347-0.8 0.747-1.47t1.07-1.04q0.667-0.4 1.84-0.4 1.47 0 2.16 0.507 0.72 0.507 0.72 1.44 0 0.827-0.587 1.36-0.56 0.533-1.89 0.533 0-1.09-0.32-1.57-0.32-0.507-1.09-0.507-0.747 0-1.25 0.587-0.507 0.587-0.8 1.49t-0.427 1.89q-0.133 0.96-0.133 1.73v4.19q0 1.17 0.64 1.49 0.667 0.293 1.55 0.293h0.747v1.12z" stroke="#000" stroke-linecap="square" stroke-width=".159" style="paint-order:markers stroke fill" aria-label="demangler"/>
 <path d="m64.7 74.7 25.3 25.3 25.3-25.3m-25.3 21.8v-51.3" fill="none" stroke="currentColor" stroke-linecap="round" stroke-linejoin="round" stroke-width="8.43"/>
 <path d="m16.2 169q-2.45-0.987-3.97-2.53-1.49-1.52-2.19-3.81-0.693-2.32-0.693-5.52 0-3.2 0.693-5.47 0.693-2.29 2.19-3.84 1.52-1.55 3.97-2.51v1.2q-1.84 1.09-2.72 2.77-0.853 1.68-1.12 3.71-0.24 2-0.24 4.13 0 2.11 0.24 4.13 0.267 2.03 1.12 3.71 0.88 1.68 2.72 2.8zm8.4-3.15q-1.76 0-3.15-0.747-1.36-0.747-2.16-2.35-0.773-1.63-0.773-4.24 0-2.85 0.773-4.48 0.8-1.65 2.13-2.32 1.36-0.693 3.04-0.693 1.12 0 2.19 0.293 1.07 0.293 1.76 0.907 0.693 0.587 0.693 1.52 0 0.907-0.613 1.31-0.587 0.373-1.76 0.373 0-1.25-0.48-2.16-0.453-0.907-1.79-0.907-1.01 0-1.79 0.533-0.747 0.533-1.17 1.87-0.4 1.33-0.4 3.73 0 2.83 0.933 4.24 0.96 1.39 3.09 1.39 1.25 0 2.16-0.507 0.933-0.533 1.39-1.36 0.453 0.373 0.453 1.04 0 0.613-0.507 1.2-0.507 0.587-1.52 0.987-0.987 0.373-2.51 0.373zm13.2 0q-2.88 0-4.53-1.84-1.65-1.84-1.65-5.6 0-3.73 1.57-5.55 1.6-1.84 4.69-1.84 2.88 0 4.53 1.84 1.65 1.81 1.65 5.55 0 3.76-1.6 5.6-1.57 1.84-4.67 1.84zm0.0533-1.39q2 0 2.8-1.52 0.827-1.55 0.827-4.53t-0.827-4.48q-0.827-1.49-2.83-1.49-2 0-2.83 1.49-0.8 1.49-0.8 4.48t0.827 4.53q0.827 1.52 2.83 1.52zm8.43 1.12v-1.12h0.213q0.907 0 1.55-0.32 0.64-0.347 0.64-1.6v-8.32q0-1.17-0.64-1.49-0.613-0.32-1.49-0.32h-0.133v-1.12h4.32l0.347 2.16h0.133q0.827-1.49 1.84-1.95 1.04-0.48 2.32-0.48 2.11 0 3.28 1.25 1.2 1.23 1.2 3.97v6.29q0 1.25 0.533 1.6 0.56 0.32 1.47 0.32h0.133v1.12h-4.64v-9.2q0-1.73-0.667-2.69-0.64-0.96-2.27-0.96-1.2 0-1.92 0.613-0.693 0.587-1.01 1.57-0.293 0.987-0.293 2.13v5.63q0 1.17 0.613 1.49 0.64 0.293 1.52 0.293h0.133v1.12zm22.1 0.267q-2 0-3.2-0.72-1.2-0.72-1.2-2.11 0-0.72 0.293-1.12t0.667-0.56q0.4-0.16 0.72-0.16 0 1.39 0.613 2.4 0.64 0.987 2.27 0.987 1.41 0 2.16-0.667 0.773-0.693 0.773-1.76 0-0.667-0.293-1.09-0.267-0.427-0.987-0.827-0.693-0.427-2-0.987-1.36-0.613-2.27-1.17-0.88-0.587-1.33-1.33-0.427-0.773-0.427-1.92 0-1.81 1.36-2.77 1.39-0.987 3.65-0.987 1.92 0 2.91 0.72t0.987 1.73q0 0.72-0.507 1.17-0.48 0.427-1.41 0.427 0-1.33-0.56-2.08-0.56-0.747-1.73-0.747-1.36 0-1.95 0.613-0.587 0.587-0.587 1.52 0 1.01 0.747 1.57 0.773 0.533 2.56 1.25 1.41 0.587 2.29 1.17t1.28 1.36q0.427 0.773 0.427 1.89 0 2.08-1.44 3.15-1.44 1.04-3.81 1.04zm12.8 0q-2.03 0-2.96-0.907-0.907-0.933-0.907-3.23v-8.91h-2.03v-1.07q0.48 0 1.07-0.187 0.587-0.213 1.01-0.667 0.453-0.48 0.747-1.17 0.293-0.693 0.48-1.71h1.23v3.28h3.49v1.52h-3.49v8.99q0 1.36 0.56 2t1.47 0.64q0.48 0 0.88-0.0533 0.4-0.0533 0.827-0.133v1.17q-0.347 0.16-1.04 0.293-0.693 0.133-1.33 0.133zm17.5 0q-1.76 0-3.15-0.747-1.36-0.747-2.16-2.35-0.773-1.63-0.773-4.24 0-2.85 0.773-4.48 0.8-1.65 2.13-2.32 1.36-0.693 3.04-0.693 1.12 0 2.19 0.293 1.07 0.293 1.76 0.907 0.693 0.587 0.693 1.52 0 0.907-0.613 1.31-0.587 0.373-1.76 0.373 0-1.25-0.48-2.16-0.453-0.907-1.79-0.907-1.01 0-1.79 0.533-0.747 0.533-1.17 1.87-0.4 1.33-0.4 3.73 0 2.83 0.933 4.24 0.96 1.39 3.09 1.39 1.25 0 2.16-0.507 0.933-0.533 1.39-1.36 0.453 0.373 0.453 1.04 0 0.613-0.507 1.2-0.507 0.587-1.52 0.987-0.987 0.373-2.51 0.373zm6.05-0.267v-1.12h0.213q0.907 0 1.55-0.32 0.64-0.347 0.64-1.6v-14.3q0-1.17-0.667-1.49-0.64-0.32-1.52-0.32h-0.213v-1.12h4.91v5.87q0 0.48-0.0267 1.01-0.0267 0.507-0.0533 0.88-0.0267 0.373-0.0267 0.373h0.133q1.23-2.43 3.92-2.43 2.29 0 3.49 1.25 1.23 1.23 1.23 3.97v6.29q0 1.25 0.56 1.6 0.587 0.32 1.49 0.32h0.08v1.12h-4.64v-9.2q0-1.73-0.667-2.69-0.64-0.96-2.27-0.96-1.65 0-2.45 1.17-0.773 1.17-0.773 3.15v5.63q0 1.17 0.64 1.49 0.667 0.293 1.55 0.293h0.08v1.12zm21.9 0.267q-1.79 0-2.96-1.04-1.17-1.04-1.17-3.23 0-2.13 1.49-3.15 1.52-1.01 4.59-1.12l2.21-0.08v-1.6q0-0.96-0.16-1.68-0.16-0.747-0.693-1.17-0.533-0.427-1.63-0.427-1.01 0-1.55 0.373-0.533 0.373-0.72 1.04-0.16 0.64-0.16 1.49-1.12 0-1.71-0.373-0.56-0.4-0.56-1.31 0-0.933 0.64-1.49 0.667-0.56 1.76-0.8 1.09-0.267 2.4-0.267 2.45 0 3.65 1.04 1.23 1.04 1.23 3.57v6.91q0 1.12 0.373 1.52 0.373 0.4 1.28 0.4h0.08v1.12h-3.6l-0.427-2.29h-0.213q-0.56 0.747-1.09 1.33-0.533 0.56-1.25 0.907-0.693 0.32-1.81 0.32zm0.613-1.65q1.63 0 2.59-0.987 0.96-1.01 0.96-2.72v-2.16l-1.71 0.08q-2.27 0.107-3.15 0.933-0.853 0.8-0.853 2.37 0 2.48 2.16 2.48zm9.81 1.39v-1.12h0.08q0.907 0 1.55-0.32 0.64-0.347 0.64-1.6v-8.32q0-1.17-0.667-1.49-0.64-0.32-1.52-0.32h-0.08v-1.12h4.11l0.507 2.64h0.133q0.347-0.8 0.747-1.47 0.4-0.667 1.07-1.04 0.667-0.4 1.84-0.4 1.47 0 2.16 0.507 0.72 0.507 0.72 1.44 0 0.827-0.587 1.36-0.56 0.533-1.89 0.533 0-1.09-0.32-1.57-0.32-0.507-1.09-0.507-0.747 0-1.25 0.587-0.507 0.587-0.8 1.49-0.293 0.907-0.427 1.89-0.133 0.96-0.133 1.73v4.19q0 1.17 0.64 1.49 0.667 0.293 1.55 0.293h0.747v1.12zm17.9-10.1 0.667-4.21-4.08 2.53-0.933-2.08 4.48-1.33-4.48-1.33 0.933-2.11 4.11 2.59-0.693-4.24h2.32l-0.747 4.21 4.13-2.51 0.933 2.08-4.51 1.31 4.51 1.31-0.933 2.05-4.13-2.48 0.747 4.21zm8.75 12.3q1.84-1.12 2.69-2.8 0.88-1.68 1.12-3.71 0.267-2.03 0.267-4.13 0-2.13-0.267-4.13-0.24-2.03-1.12-3.71-0.853-1.68-2.69-2.77v-1.2q2.45 0.96 3.95 2.51 1.52 1.55 2.21 3.84 0.693 2.27 0.693 5.47 0 3.2-0.693 5.52-0.693 2.29-2.21 3.81-1.49 1.55-3.95 2.53z" stroke="#000" stroke-linecap="square" stroke-width=".159" style="paint-order:markers stroke fill" aria-label="(const char*)"/>
</svg>
